<svg width="28" height="25" viewBox="0 0 28 25" fill="none" xmlns="http://www.w3.org/2000/svg">
<path d="M4.33687 23.3804V16.1077H2C5.14494 5.31881 8.85772 1.01635 15.6936 1.01636C15.6936 1.01636 26.417 1.01636 26.417 12.1984C26.417 23.3804 15.6936 23.3804 15.6936 23.3804H4.33687Z" stroke="#0E927A" stroke-width="1.79087"/>
<path fill-rule="evenodd" clip-rule="evenodd" d="M16.7201 5.05676H13.8373V8.87145L11.1398 6.17402L9.10135 8.21252L11.7987 10.9098L7.98419 10.9098L7.98419 13.7927H11.7987L9.10139 16.49L11.1399 18.5285L13.8373 15.8311V19.6458H16.7201V15.8313L19.4174 18.5285L21.4558 16.49L18.7585 13.7927H22.5732V10.9098L18.7586 10.9098L21.4559 8.21252L19.4174 6.17403L16.7201 8.8713V5.05676ZM16.7201 8.8713V10.9098H18.7586L17.3171 12.3513L18.7585 13.7927L16.7201 13.7927V15.8313L15.2786 14.3898L13.8373 15.8311V13.7927H11.7987L13.2401 12.3513L11.7987 10.9098H13.8373V8.87145L15.2786 10.3128L16.7201 8.8713ZM13.8373 11.7542V12.9484L14.6815 13.7927H15.8757L16.7201 12.9483V11.7543L15.8757 10.9098H14.6816L13.8373 11.7542Z" fill="#0E927A"/>
</svg>
