<svg width="104" height="32" viewBox="0 0 104 32" fill="none" xmlns="http://www.w3.org/2000/svg">
<path d="M43.8299 19.4733L44.0556 18.7962C44.0556 15.5234 41.7986 13.3792 39.0901 13.3792C36.1559 13.3792 33.8989 15.6363 33.8989 18.909C33.8989 22.1818 36.2688 24.4388 39.0901 24.4388C41.2343 24.4388 42.8143 23.3103 43.7171 21.7304L41.8212 20.8275C41.4826 21.7304 40.5572 22.4075 39.203 22.4075C37.2845 22.4075 36.1559 21.0532 36.1559 19.4733H43.8299ZM39.0901 15.4106C40.4443 15.4106 41.5729 16.3134 41.6857 17.4871H36.2688C36.6073 16.3134 37.5102 15.4106 39.0901 15.4106ZM56.1283 7.05945H53.8712V14.5078L53.7584 14.6206L53.6455 14.5078C52.9684 13.8306 51.8173 13.3792 50.7113 13.3792C47.7772 13.3792 45.2944 15.6363 45.2944 18.909C45.2944 22.1818 47.7772 24.4388 50.7113 24.4388C51.8399 24.4388 52.9684 23.9874 53.6455 23.3103L53.7584 23.1975L53.8712 23.3103L54.0969 24.2131H56.1283V7.05945ZM54.0969 18.909C54.0969 20.8275 52.7427 22.4075 50.8242 22.4075C48.68 22.4075 47.5289 20.8275 47.5289 18.909C47.5289 16.9905 48.68 15.4106 50.8242 15.4106C52.7427 15.4106 54.0969 16.9905 54.0969 18.909ZM58.1667 24.9128C58.1667 27.4407 60.4238 28.9304 62.7937 28.9304C65.1636 28.9304 67.4207 27.4407 67.4207 24.9128C67.4207 23.4006 66.6081 22.2495 65.3893 21.6175C66.6081 20.8953 67.4207 19.6313 67.4207 18.0062V13.6049H65.8407L65.615 14.5078L65.5022 14.6206L65.3893 14.5078C64.9379 13.8306 63.8094 13.3792 62.7937 13.3792C60.1981 13.3792 58.1667 15.4106 58.1667 18.0062C58.1667 19.6313 58.9792 20.8953 60.1981 21.6175C59.0018 22.2495 58.1667 23.4006 58.1667 24.9128ZM60.3109 18.0062C60.3109 16.5391 61.3266 15.4106 62.7937 15.4106C64.2608 15.4106 65.2764 16.5391 65.2764 18.0062C65.2764 19.4733 64.2608 20.6018 62.7937 20.6018C61.3266 20.6018 60.3109 19.4733 60.3109 18.0062ZM60.3109 24.8903C60.3109 23.6489 61.3266 22.746 62.7937 22.746C64.2608 22.746 65.2764 23.6489 65.2764 24.8903C65.2764 26.1316 64.2608 26.9893 62.7937 26.9893C61.3266 26.9893 60.3109 26.1316 60.3109 24.8903ZM79.0525 19.4733L79.2782 18.7962C79.2782 15.5234 77.0211 13.3792 74.3126 13.3792C71.3785 13.3792 69.1214 15.6363 69.1214 18.909C69.1214 22.1818 71.4913 24.4388 74.3126 24.4388C76.4568 24.4388 78.0368 23.3103 78.9396 21.7304L77.0437 20.8275C76.7051 21.7304 75.7797 22.4075 74.4255 22.4075C72.507 22.4075 71.3785 21.0532 71.3785 19.4733H79.0525ZM74.3126 15.4106C75.6669 15.4106 76.7954 16.3134 76.9083 17.4871H71.4913C71.8299 16.3134 72.7327 15.4106 74.3126 15.4106ZM90.448 19.4733L90.6737 18.7962C90.6737 15.5234 88.4166 13.3792 85.7082 13.3792C82.774 13.3792 80.5169 15.6363 80.5169 18.909C80.5169 22.1818 82.8868 24.4388 85.7082 24.4388C87.8524 24.4388 89.4323 23.3103 90.3351 21.7304L88.4392 20.8275C88.1007 21.7304 87.1753 22.4075 85.821 22.4075C83.9025 22.4075 82.774 21.0532 82.774 19.4733H90.448ZM85.7082 15.4106C87.0624 15.4106 88.1909 16.3134 88.3038 17.4871H82.8868C83.2254 16.3134 84.1282 15.4106 85.7082 15.4106ZM94.8466 17.8934V7.05945H92.5896V24.2131H94.8466V19.699L99.3607 24.2131H102.295L96.9683 18.7059L102.069 13.6049H99.135L94.8466 17.8934Z" fill="#0E927A"/>
<path d="M4.33687 27.3804V20.1077H2C5.14494 9.31881 8.85772 5.01635 15.6936 5.01636C15.6936 5.01636 26.417 5.01636 26.417 16.1984C26.417 27.3804 15.6936 27.3804 15.6936 27.3804H4.33687Z" stroke="#0E927A" stroke-width="1.79087"/>
<path fill-rule="evenodd" clip-rule="evenodd" d="M16.7201 9.05676H13.8373V12.8714L11.1398 10.174L9.10135 12.2125L11.7987 14.9098L7.98419 14.9098L7.98419 17.7927H11.7987L9.10139 20.49L11.1399 22.5285L13.8373 19.8311V23.6458H16.7201V19.8313L19.4174 22.5285L21.4558 20.49L18.7585 17.7927H22.5732V14.9098H18.7586L21.4559 12.2125L19.4174 10.174L16.7201 12.8713V9.05676ZM16.7201 12.8713V14.9098H18.7586L17.3171 16.3513L18.7585 17.7927L16.7201 17.7927V19.8313L15.2786 18.3898L13.8373 19.8311V17.7927H11.7987L13.2401 16.3513L11.7987 14.9098H13.8373V12.8714L15.2786 14.3128L16.7201 12.8713ZM13.8373 15.7542V16.9484L14.6815 17.7927H15.8757L16.7201 16.9483V15.7543L15.8757 14.9098H14.6816L13.8373 15.7542Z" fill="#0E927A"/>
</svg>
