<svg width="562" height="456" viewBox="0 0 562 456" fill="none" xmlns="http://www.w3.org/2000/svg">
<path d="M304.255 444.121L307.728 447.593C309.597 445.725 312.077 444.695 314.724 444.695C317.371 444.695 319.85 445.725 321.719 447.593L325.193 444.121C322.39 441.318 318.676 439.786 314.724 439.786C310.771 439.786 307.046 441.318 304.255 444.121Z" fill="#049478"/>
<path d="M298.478 438.35L301.952 441.823C305.366 438.41 309.894 436.542 314.721 436.542C319.548 436.542 324.076 438.422 327.489 441.823L330.963 438.35C326.627 434.015 320.854 431.62 314.721 431.62C308.588 431.62 302.814 434.015 298.478 438.35Z" fill="#049478"/>
<path d="M314.722 423.465C306.409 423.465 298.587 426.698 292.706 432.578L296.18 436.051C301.127 431.105 307.715 428.375 314.722 428.375C321.729 428.375 328.305 431.105 333.264 436.051L336.738 432.578C330.868 426.698 323.047 423.465 314.722 423.465Z" fill="#049478"/>
<path d="M314.724 447.593C312.4 447.593 310.519 449.473 310.519 451.797C310.519 454.12 312.4 456 314.724 456C317.048 456 318.928 454.12 318.928 451.797C318.928 449.473 317.048 447.593 314.724 447.593Z" fill="#049478"/>
<path d="M328.26 197.666L330.875 200.281C332.283 198.874 334.15 198.099 336.143 198.099C338.137 198.099 340.004 198.874 341.411 200.281L344.027 197.666C341.916 195.556 339.12 194.402 336.143 194.402C333.167 194.393 330.37 195.556 328.26 197.666Z" stroke="#049478" stroke-width="0.91562" stroke-miterlimit="10"/>
<path d="M323.919 193.32L326.535 195.935C329.105 193.365 332.515 191.958 336.15 191.958C339.785 191.958 343.195 193.374 345.765 195.935L348.381 193.32C345.116 190.056 340.768 188.252 336.15 188.252C331.523 188.252 327.184 190.056 323.919 193.32Z" stroke="#049478" stroke-width="0.91562" stroke-miterlimit="10"/>
<path d="M336.153 182.11C329.893 182.11 324.003 184.545 319.574 188.973L322.19 191.588C325.915 187.864 330.876 185.808 336.153 185.808C341.43 185.808 346.382 187.864 350.116 191.588L352.732 188.973C348.303 184.545 342.413 182.11 336.153 182.11Z" stroke="#049478" stroke-width="0.91562" stroke-miterlimit="10"/>
<path d="M336.159 206.61C337.908 206.61 339.325 205.193 339.325 203.445C339.325 201.697 337.908 200.28 336.159 200.28C334.411 200.28 332.993 201.697 332.993 203.445C332.993 205.193 334.411 206.61 336.159 206.61Z" stroke="#049478" stroke-width="0.91562" stroke-miterlimit="10"/>
<path d="M457.327 264.084V274.862" stroke="#049478" stroke-width="0.91192" stroke-miterlimit="10" stroke-linecap="round" stroke-linejoin="round"/>
<path d="M451.952 269.473H462.72" stroke="#049478" stroke-width="0.91192" stroke-miterlimit="10" stroke-linecap="round" stroke-linejoin="round"/>
<path d="M69.2235 367.689V378.466" stroke="#DB7294" stroke-width="0.91192" stroke-miterlimit="10" stroke-linecap="round" stroke-linejoin="round"/>
<path d="M63.8358 373.077H74.6042" stroke="#DB7294" stroke-width="0.91192" stroke-miterlimit="10" stroke-linecap="round" stroke-linejoin="round"/>
<path d="M160.375 438.303V449.081" stroke="#DB7294" stroke-width="0.91192" stroke-miterlimit="10" stroke-linecap="round" stroke-linejoin="round"/>
<path d="M154.987 443.691H165.768" stroke="#DB7294" stroke-width="0.91192" stroke-miterlimit="10" stroke-linecap="round" stroke-linejoin="round"/>
<path d="M300.849 113.204V123.97" stroke="#DB7294" stroke-width="0.91192" stroke-miterlimit="10" stroke-linecap="round" stroke-linejoin="round"/>
<path d="M295.474 118.594H306.242" stroke="#DB7294" stroke-width="0.91192" stroke-miterlimit="10" stroke-linecap="round" stroke-linejoin="round"/>
<path d="M79.3036 71.3663V82.1319" stroke="#049478" stroke-width="0.91192" stroke-miterlimit="10" stroke-linecap="round" stroke-linejoin="round"/>
<path d="M73.9159 76.7428H84.6843" stroke="#049478" stroke-width="0.91192" stroke-miterlimit="10" stroke-linecap="round" stroke-linejoin="round"/>
<path d="M134.753 254.863V265.641" stroke="#EEDA36" stroke-width="0.91192" stroke-miterlimit="10" stroke-linecap="round" stroke-linejoin="round"/>
<path d="M129.366 260.251H140.146" stroke="#EEDA36" stroke-width="0.91192" stroke-miterlimit="10" stroke-linecap="round" stroke-linejoin="round"/>
<path d="M351.572 392.308V403.073" stroke="#EEDA36" stroke-width="0.91192" stroke-miterlimit="10" stroke-linecap="round" stroke-linejoin="round"/>
<path d="M346.183 397.684H356.952" stroke="#EEDA36" stroke-width="0.91192" stroke-miterlimit="10" stroke-linecap="round" stroke-linejoin="round"/>
<path d="M252.026 120.401C254.07 120.401 255.728 118.745 255.728 116.701C255.728 114.657 254.07 113.001 252.026 113.001C249.982 113.001 248.325 114.657 248.325 116.701C248.325 118.745 249.982 120.401 252.026 120.401Z" stroke="#EEDA36" stroke-width="0.91192" stroke-miterlimit="10" stroke-linecap="round" stroke-linejoin="round"/>
<path d="M82.7156 430.346C85.8715 419.934 79.986 408.94 69.5699 405.79C59.1538 402.639 48.1515 408.526 44.9955 418.937C41.8396 429.349 47.725 440.343 58.1411 443.494C68.5572 446.644 79.5596 440.758 82.7156 430.346Z" fill="#E4B0C8"/>
<path d="M75.6985 416.317H52.5927V433.669H75.6985V416.317Z" stroke="white" stroke-width="1.21589" stroke-miterlimit="10"/>
<path d="M52.5927 416.317L64.1396 426.987L75.6985 416.317" stroke="white" stroke-width="1.21589" stroke-miterlimit="10"/>
<path d="M281.816 97.6252C288.736 97.6252 294.345 92.0173 294.345 85.0997C294.345 78.1822 288.736 72.5743 281.816 72.5743C274.896 72.5743 269.287 78.1822 269.287 85.0997C269.287 92.0173 274.896 97.6252 281.816 97.6252Z" fill="#E4B0C8"/>
<path d="M289.336 79.8066H274.651V90.8357H289.336V79.8066Z" stroke="white" stroke-width="1.21589" stroke-miterlimit="10"/>
<path d="M274.651 79.8066L281.994 86.5965L289.336 79.8066" stroke="white" stroke-width="1.21589" stroke-miterlimit="10"/>
<path d="M160.378 216.114L163.756 221.97L167.146 227.838H160.378H153.61L156.988 221.97L160.378 216.114Z" fill="#D96980"/>
<path d="M452.432 387.614L460.146 394.392L467.872 401.17L458.145 404.463L448.407 407.756L450.419 397.685L452.432 387.614Z" stroke="#D96980" stroke-width="1.21589" stroke-miterlimit="10"/>
<path d="M21.3753 71.6163L18.6802 81.5317L15.9971 91.4471L8.75031 84.1543L1.5155 76.8734L11.4454 74.2389L21.3753 71.6163Z" stroke="#D96980" stroke-width="1.21589" stroke-miterlimit="10"/>
<path d="M237.277 417.933C237.277 420.987 234.797 423.466 231.743 423.466C228.688 423.466 226.209 420.987 226.209 417.933C226.209 414.88 228.688 412.401 231.743 412.401C234.797 412.389 237.277 414.868 237.277 417.933Z" stroke="#D96980" stroke-width="1.21589" stroke-miterlimit="10"/>
<path d="M435.843 58.5291C435.843 62.8401 432.345 66.3368 428.033 66.3368C423.721 66.3368 420.224 62.8401 420.224 58.5291C420.224 54.218 423.721 50.7213 428.033 50.7213C432.345 50.7213 435.843 54.2061 435.843 58.5291Z" stroke="#D96980" stroke-width="1.21589" stroke-miterlimit="10"/>
<path d="M281.086 268.85C281.086 271.592 278.858 273.808 276.127 273.808C273.384 273.808 271.168 271.58 271.168 268.85C271.168 266.108 273.396 263.892 276.127 263.892C278.858 263.892 281.086 266.108 281.086 268.85Z" fill="#D96980"/>
<path d="M440.816 443.02C440.816 445.762 438.588 447.978 435.857 447.978C433.114 447.978 430.898 445.75 430.898 443.02C430.898 440.278 433.126 438.062 435.857 438.062C438.588 438.05 440.816 440.278 440.816 443.02Z" fill="#D96980"/>
<path d="M291.616 369.76C291.616 371.4 290.287 372.718 288.658 372.718C287.017 372.718 285.699 371.388 285.699 369.76C285.699 368.131 287.029 366.802 288.658 366.802C290.299 366.802 291.616 368.131 291.616 369.76Z" fill="#E4B0C8"/>
<path d="M534.462 294.836C538.715 294.836 542.164 291.389 542.164 287.136C542.164 282.884 538.715 279.436 534.462 279.436C530.208 279.436 526.76 282.884 526.76 287.136C526.76 291.389 530.208 294.836 534.462 294.836Z" stroke="#049478" stroke-width="1.21589" stroke-miterlimit="10"/>
<path d="M25.4977 348.314C29.328 348.314 32.4331 345.21 32.4331 341.38C32.4331 337.551 29.328 334.447 25.4977 334.447C21.6674 334.447 18.5624 337.551 18.5624 341.38C18.5624 345.21 21.6674 348.314 25.4977 348.314Z" stroke="#049478" stroke-width="1.21589" stroke-miterlimit="10"/>
<path d="M407.635 425.634C407.635 428.939 404.952 431.622 401.646 431.622C398.34 431.622 395.657 428.939 395.657 425.634C395.657 422.329 398.34 419.647 401.646 419.647C404.952 419.635 407.635 422.329 407.635 425.634Z" stroke="#049478" stroke-width="1.21589" stroke-miterlimit="10"/>
<path d="M34.0249 139.393C34.0249 139.393 32.7073 148.494 26.5265 149.44C20.3458 150.386 14.6801 149.979 18.1418 165.629" stroke="#EEDA36" stroke-width="1.21589" stroke-miterlimit="10"/>
<path d="M336.733 61.5335C336.733 61.5335 346.675 60.5635 349.274 66.8384C351.874 73.1134 352.916 79.1847 368.523 71.4728" stroke="#EEDA36" stroke-width="1.21589" stroke-miterlimit="10"/>
<path d="M384.712 203.301C384.712 205.78 382.7 207.792 380.22 207.792C377.741 207.792 375.728 205.78 375.728 203.301C375.728 200.822 377.741 198.811 380.22 198.811C382.712 198.823 384.712 200.834 384.712 203.301Z" fill="#EEDA36"/>
<path d="M146.463 65.1423C148.934 63.2456 149.4 59.7051 147.503 57.2343C145.605 54.7635 142.064 54.2981 139.592 56.1948C137.121 58.0915 136.655 61.632 138.552 64.1028C140.45 66.5736 143.991 67.039 146.463 65.1423Z" stroke="#D7D4FC" stroke-width="1.21589" stroke-miterlimit="10"/>
<path d="M102.934 337.513C46.6368 337.513 1 294.213 1 240.806C1 203.05 23.7944 170.36 57.0458 154.433" stroke="#C1C0FF" stroke-width="1.21589" stroke-miterlimit="10" stroke-dasharray="4.86 4.86"/>
<path d="M323.087 359.918C327.22 397.734 298.771 431.861 259.531 436.148C220.291 440.435 185.123 413.265 180.99 375.461" stroke="#C1C0FF" stroke-width="1.21589" stroke-miterlimit="10" stroke-dasharray="4.86 4.86"/>
<path d="M342.022 225.577C374.922 225.577 401.593 199.503 401.593 167.338C401.593 135.174 374.922 109.1 342.022 109.1C309.122 109.1 282.451 135.174 282.451 167.338C282.451 199.503 309.122 225.577 342.022 225.577Z" stroke="#C1C0FF" stroke-width="1.04276" stroke-miterlimit="10" stroke-dasharray="4.17 4.17"/>
<path d="M192.457 264.588C229.06 264.588 258.732 235.584 258.732 199.806C258.732 164.027 229.06 135.023 192.457 135.023C155.854 135.023 126.182 164.027 126.182 199.806C126.182 235.584 155.854 264.588 192.457 264.588Z" stroke="#C1C0FF" stroke-width="1.21589" stroke-miterlimit="10" stroke-dasharray="4.86 4.86"/>
<path d="M496.019 354.398C531.907 354.398 561 327.517 561 294.357C561 261.198 531.907 234.317 496.019 234.317C460.13 234.317 431.037 261.198 431.037 294.357C431.037 327.517 460.13 354.398 496.019 354.398Z" stroke="#C1C0FF" stroke-width="1.21589" stroke-miterlimit="10" stroke-dasharray="4.86 4.86"/>
<path d="M257.228 400.677H129.456C124.319 400.677 120.147 396.517 120.147 391.372V309.162C120.147 304.026 124.309 299.856 129.456 299.856H257.228C262.365 299.856 266.536 304.016 266.536 309.162V391.372C266.536 396.507 262.365 400.677 257.228 400.677Z" fill="#D0EEDE"/>
<path d="M247.541 382.572H139.143C134.006 382.572 129.834 378.412 129.834 373.266V315.023C129.834 309.887 133.996 305.717 139.143 305.717H247.531C252.668 305.717 256.839 309.877 256.839 315.023V373.266C256.839 378.402 252.678 382.572 247.541 382.572Z" fill="white"/>
<path d="M167.796 340.841C167.796 340.841 160.907 362.548 174.984 367.345C189.072 372.142 190.645 368.171 193.781 375.666C196.907 383.16 209.451 379.925 210.646 368.39C211.84 356.855 203.328 357.751 198.898 357.154C194.468 356.556 191.511 348.415 191.551 344.175C191.6 339.955 169.389 332.003 167.796 340.841Z" fill="black"/>
<path d="M183.409 361.204C183.409 361.204 198.422 362.12 213.914 376.671C229.405 391.222 228.996 428.773 228.996 428.773L182.752 427.589L183.409 361.204Z" fill="white" stroke="black" stroke-width="1.0106" stroke-miterlimit="10"/>
<path d="M199.28 373.635C209.644 381.378 230.73 427.41 224.04 427.569C217.339 427.728 137.415 427.091 134.906 424.603C132.397 422.125 143.279 400.179 143.279 400.179C143.279 400.179 160.094 365.633 186.128 365.424C194.8 365.354 188.209 365.364 199.28 373.635Z" fill="white"/>
<path d="M156.808 401.951C156.808 401.951 149.48 422.474 151.173 424.793C152.865 427.112 206.666 427.719 211.176 427.57C215.686 427.42 208.05 395.064 204.227 385.758" stroke="#1C191B" stroke-width="1.0106" stroke-miterlimit="10"/>
<path d="M184.969 412.689C184.969 412.689 191.002 408.648 206.603 412.49C206.603 412.49 209.629 413.854 207.31 414.471C204.99 415.088 199.196 414.152 199.196 414.152C199.196 414.152 208.176 414.969 208.385 416.531C208.584 418.094 199.913 416.571 199.913 416.571C199.913 416.571 209.261 418.044 209.141 419.627C209.032 421.209 203.835 419.448 198.788 419.806C193.74 420.164 184.541 423.867 183.117 422.842C181.694 421.826 178.587 415.068 184.969 412.689Z" fill="white" stroke="#1C191B" stroke-width="1.0106" stroke-miterlimit="10"/>
<path d="M179.907 361.214C170.589 361.294 160.374 364.19 150.478 372.262C136.968 383.269 114.06 417.875 124.066 435.74C134.071 453.605 157.109 446.638 165.083 443.046C173.058 439.453 188.668 427.489 190.371 422.593C192.362 416.86 191.496 412.819 184.298 411.018C177.11 409.216 150.697 412.033 145.52 415.397" fill="white"/>
<path d="M179.907 361.214C170.589 361.294 160.374 364.19 150.478 372.262C136.968 383.269 114.06 417.875 124.066 435.74C134.071 453.605 157.109 446.638 165.083 443.046C173.058 439.453 188.668 427.489 190.371 422.593C192.362 416.86 191.496 412.819 184.298 411.018C177.11 409.216 150.697 412.033 145.52 415.397" stroke="black" stroke-width="1.0106" stroke-miterlimit="10"/>
<path d="M190.377 422.594C192.328 416.991 191.522 413.009 184.772 411.158C184.413 412.96 184.324 415.109 184.582 417.399C185.02 421.221 186.325 424.455 187.928 426.177C189.162 424.784 190.038 423.55 190.377 422.594Z" fill="#FFBA7B" stroke="black" stroke-width="1.0106" stroke-miterlimit="10"/>
<path d="M168.721 388.983C168.721 388.983 160.846 383.22 163.882 380.562C166.919 377.905 169.527 383.389 169.527 383.389C169.527 383.389 171.359 378.582 173.957 380.184C176.566 381.787 168.721 388.983 168.721 388.983Z" fill="#FFBA7B" stroke="#1C191B" stroke-width="1.0106" stroke-miterlimit="10"/>
<path d="M188.369 364.389C188.369 367.106 184.586 369.316 179.916 369.316C175.247 369.316 171.464 367.116 171.464 364.389C171.464 361.672 175.247 359.462 179.916 359.462C184.586 359.472 188.369 361.672 188.369 364.389Z" fill="#FFBA7B" stroke="#1C191B" stroke-width="1.0106" stroke-miterlimit="10"/>
<path d="M164.179 340.84C164.179 344.274 166.986 347.061 170.461 347.061C173.936 347.061 176.743 344.274 176.743 340.84C176.743 337.407 173.936 334.62 170.461 334.62C166.986 334.62 164.179 337.407 164.179 340.84Z" fill="white" stroke="black" stroke-width="1.0106" stroke-miterlimit="10"/>
<path d="M190.315 322.648H182.888C177.95 322.648 173.908 327.246 173.908 332.869V344.385C173.908 344.713 173.928 345.032 173.948 345.35C173.868 345.689 173.819 346.037 173.819 346.405V353.412V353.8V360.807C173.819 363.345 175.899 365.435 178.448 365.435H181.395C183.934 365.435 186.024 363.355 186.024 360.807V354.606H190.315C195.253 354.606 199.295 350.008 199.295 344.385V332.869C199.295 327.246 195.253 322.648 190.315 322.648Z" fill="white" stroke="black" stroke-width="1.0106" stroke-miterlimit="10"/>
<path d="M173.28 338.044C173.28 338.044 180.568 335.625 182.768 330.927C184.978 326.23 184.431 325.214 184.431 325.214C184.431 325.214 188.532 330.838 195.023 332.211C200.38 333.356 200.161 332.56 200.688 331.315C201.176 330.171 201.505 322.239 193.361 317.362C185.227 312.485 176.486 312.963 170.463 319.044C164.43 325.125 165.166 334.699 167.197 337.098C169.218 339.497 171.896 340.83 173.28 338.044Z" fill="black"/>
<path d="M177.533 309.898C178.456 305.993 176.038 302.08 172.131 301.159C168.225 300.237 164.31 302.656 163.387 306.561C162.463 310.466 164.882 314.379 168.788 315.3C172.695 316.222 176.61 313.803 177.533 309.898Z" fill="black"/>
<path d="M164.549 340.842C164.549 344.077 167.197 346.704 170.463 346.704C173.728 346.704 176.376 344.077 176.376 340.842C176.376 337.607 173.728 334.979 170.463 334.979C167.197 334.979 164.549 337.607 164.549 340.842Z" fill="white"/>
<path d="M173.658 341.618C173.658 341.618 173.917 337.637 169.825 338.075" stroke="#020202" stroke-width="1.0106" stroke-miterlimit="10"/>
<path d="M186.104 338.302C187.028 338.302 187.777 337.554 187.777 336.63C187.777 335.707 187.028 334.958 186.104 334.958C185.181 334.958 184.432 335.707 184.432 336.63C184.432 337.554 185.181 338.302 186.104 338.302Z" fill="black"/>
<path d="M195.4 336.382C195.4 337.168 196.037 337.815 196.833 337.815C197.62 337.815 198.267 337.178 198.267 336.382C198.267 335.596 197.63 334.949 196.833 334.949C196.037 334.959 195.4 335.596 195.4 336.382Z" fill="black"/>
<path d="M193.786 343.229C193.786 343.229 192.94 345.677 191.168 345.846C189.386 346.016 187.992 344.045 187.903 342.502" stroke="#0C0C0C" stroke-width="1.0106" stroke-miterlimit="10"/>
<path d="M178.599 342.781C178.599 345.081 180.461 346.942 182.76 346.942C185.06 346.942 186.922 345.081 186.922 342.781C186.922 340.482 185.06 338.621 182.76 338.621C180.461 338.621 178.599 340.482 178.599 342.781Z" fill="#E4B0C8"/>
<path d="M198.177 339.966C198.426 339.966 198.675 339.996 198.914 340.055V344.375C198.914 345.022 198.894 345.639 198.754 346.246C198.585 346.276 198.356 346.296 198.177 346.296C196.425 346.296 195.011 344.883 195.011 343.131C195.001 341.379 196.425 339.966 198.177 339.966Z" fill="#E4B0C8"/>
<path d="M191.9 334.958L191.562 340.651L194.28 338.999L191.9 334.958Z" fill="#DB7294"/>
<path d="M245.303 322.647H215.366C212.389 322.647 209.98 320.239 209.98 317.263C209.98 314.287 212.389 311.878 215.366 311.878H245.303C248.279 311.878 250.689 314.287 250.689 317.263C250.689 320.239 248.279 322.647 245.303 322.647Z" stroke="black" stroke-width="1.0106" stroke-miterlimit="10"/>
<path d="M247.54 382.572H139.143C134.005 382.572 129.834 378.412 129.834 373.266V315.023C129.834 309.887 133.995 305.717 139.143 305.717H247.53C252.667 305.717 256.839 309.877 256.839 315.023V373.266C256.839 378.402 252.677 382.572 247.54 382.572Z" stroke="black" stroke-width="1.0106" stroke-miterlimit="10"/>
<path d="M196.917 391.352C196.897 392.745 196.041 394.039 194.717 394.517C193.363 395.005 191.829 394.587 190.923 393.472C190.047 392.387 189.948 390.824 190.655 389.63C191.361 388.446 192.785 387.789 194.149 388.047C195.752 388.326 196.897 389.73 196.917 391.352C196.927 392.148 198.171 392.158 198.161 391.352C198.131 389.421 196.947 387.709 195.145 387.022C193.353 386.345 191.222 386.913 190.007 388.396C188.783 389.889 188.584 392.039 189.579 393.711C190.575 395.383 192.526 396.219 194.418 395.881C196.578 395.492 198.121 393.522 198.151 391.352C198.171 390.546 196.927 390.546 196.917 391.352Z" fill="black"/>
<path d="M182.515 213.097H68.8536C64.2831 213.097 60.5762 209.391 60.5762 204.822V131.695C60.5762 127.126 64.2831 123.42 68.8536 123.42H182.515C187.086 123.42 190.793 127.126 190.793 131.695V204.822C190.793 209.391 187.086 213.097 182.515 213.097Z" fill="#D0EEDE"/>
<path d="M128.762 204.801C128.741 205.99 128.014 207.106 126.877 207.517C125.708 207.938 124.381 207.58 123.602 206.612C122.854 205.685 122.77 204.337 123.381 203.316C123.991 202.305 125.202 201.737 126.371 201.947C127.751 202.2 128.741 203.4 128.762 204.801C128.772 205.643 130.089 205.653 130.078 204.801C130.057 203.032 128.972 201.474 127.319 200.853C125.697 200.231 123.749 200.758 122.643 202.105C121.527 203.474 121.337 205.432 122.243 206.959C123.159 208.486 124.929 209.244 126.666 208.938C128.636 208.58 130.036 206.78 130.068 204.811C130.089 203.948 128.772 203.948 128.762 204.801Z" fill="black"/>
<path d="M173.891 196.989H77.4689C72.8985 196.989 69.1915 193.283 69.1915 188.714V136.906C69.1915 132.337 72.8985 128.631 77.4689 128.631H173.891C178.462 128.631 182.169 132.337 182.169 136.906V188.714C182.179 193.283 178.472 196.989 173.891 196.989Z" fill="white"/>
<path d="M109.64 178.849C88.4831 178.849 71.328 200.42 71.328 227.024H147.952C147.952 200.42 130.797 178.849 109.64 178.849Z" fill="white" stroke="black" stroke-width="1.069" stroke-miterlimit="10"/>
<path d="M97.6683 190.451C97.6683 191.957 96.4467 193.189 94.9302 193.189C93.4137 193.189 92.1921 191.967 92.1921 190.451C92.1921 188.946 93.4137 187.714 94.9302 187.714C96.4467 187.714 97.6683 188.946 97.6683 190.451Z" fill="#FFBA7B"/>
<path d="M108.532 203.705C110.212 203.705 111.575 202.343 111.575 200.663C111.575 198.982 110.212 197.62 108.532 197.62C106.851 197.62 105.488 198.982 105.488 200.663C105.488 202.343 106.851 203.705 108.532 203.705Z" fill="#FFBA7B"/>
<path d="M122.936 190.451C122.936 191.957 121.714 193.189 120.198 193.189C118.692 193.189 117.46 191.967 117.46 190.451C117.46 188.946 118.681 187.714 120.198 187.714C121.714 187.724 122.936 188.946 122.936 190.451Z" fill="#FFBA7B"/>
<path d="M133.518 199.874C134.821 199.874 135.877 198.819 135.877 197.516C135.877 196.214 134.821 195.158 133.518 195.158C132.215 195.158 131.159 196.214 131.159 197.516C131.159 198.819 132.215 199.874 133.518 199.874Z" fill="#FFBA7B"/>
<path d="M88.2341 202.264C88.2341 203.832 86.9598 205.117 85.3802 205.117C83.811 205.117 82.5262 203.843 82.5262 202.264C82.5262 200.684 83.8005 199.411 85.3802 199.411C86.9598 199.421 88.2341 200.695 88.2341 202.264Z" fill="#FFBA7B"/>
<path d="M97.5951 213.55C99.276 213.55 100.639 212.188 100.639 210.507C100.639 208.827 99.276 207.464 97.5951 207.464C95.9143 207.464 94.5516 208.827 94.5516 210.507C94.5516 212.188 95.9143 213.55 97.5951 213.55Z" fill="#FFBA7B"/>
<path d="M125.746 212.476C127.13 212.476 128.252 211.354 128.252 209.97C128.252 208.586 127.13 207.464 125.746 207.464C124.361 207.464 123.239 208.586 123.239 209.97C123.239 211.354 124.361 212.476 125.746 212.476Z" fill="#FFBA7B"/>
<path d="M140.743 214.908C140.743 216.255 139.658 217.34 138.31 217.34C136.963 217.34 135.878 216.255 135.878 214.908C135.878 213.56 136.963 212.475 138.31 212.475C139.648 212.475 140.743 213.57 140.743 214.908Z" fill="#FFBA7B"/>
<path d="M84.9697 216.128C84.9697 217.549 83.8112 218.707 82.3896 218.707C80.9679 218.707 79.8094 217.549 79.8094 216.128C79.8094 214.707 80.9679 213.548 82.3896 213.548C83.8112 213.538 84.9697 214.696 84.9697 216.128Z" fill="#FFBA7B"/>
<path d="M114.801 218.707C114.801 220.129 113.642 221.287 112.221 221.287C110.799 221.287 109.641 220.129 109.641 218.707C109.641 217.286 110.799 216.128 112.221 216.128C113.642 216.128 114.801 217.286 114.801 218.707Z" fill="#FFBA7B"/>
<path d="M150.918 202.021L151.677 199.452C151.677 199.452 151.75 198.768 150.771 198.389C149.781 198.01 134.711 192.209 134.711 192.209C134.711 192.209 133.426 191.451 133.068 192.377C132.71 193.304 130.214 197.399 130.214 197.399C130.214 197.399 129.498 198.442 130.372 198.915C131.246 199.4 144.905 204.538 144.905 204.538L148.391 205.98C148.391 205.98 149.497 206.38 149.676 205.843C149.844 205.327 150.918 202.021 150.918 202.021Z" fill="#049478"/>
<path d="M155.122 183.977C155.122 183.977 156.48 176.965 155.364 175.649C154.248 174.334 153.184 175.744 152.637 177.513C152.078 179.282 151.204 182.64 151.204 182.64L147.687 175.576C147.687 175.576 155.501 169.88 155.796 168.838C156.091 167.796 156.154 167.101 155.617 167.09C155.08 167.08 153.405 167.532 153.405 167.532C153.405 167.532 156.049 164.985 155.227 164.079C154.406 163.174 151.552 165.248 151.552 165.248C151.552 165.248 152.573 161.384 152.11 160.637C151.636 159.889 148.435 164.29 147.561 165.932C146.676 167.575 145.096 170.291 145.096 170.291C145.096 170.291 144.043 171.112 144.085 171.554C144.127 171.996 142.801 172.975 142.59 173.154C142.39 173.333 140.789 176.671 139.283 180.061C137.777 183.461 135.545 188.072 135.545 188.072L134.449 190.167C134.449 190.167 133.28 191.873 135.713 192.568C138.146 193.263 147.74 197.2 147.74 197.2L150.783 198.369C150.783 198.369 151.699 199.653 152.436 196.705C153.174 193.779 155.122 183.977 155.122 183.977Z" fill="white"/>
<path d="M149.121 207.443C154.407 192.694 156.619 177.249 155.366 175.66C153.628 173.438 152.543 177.228 151.206 182.65L147.688 175.586C147.688 175.586 156.124 169.848 156.124 167.564C156.124 165.279 142.897 171.743 141.738 174.144C140.991 175.691 136.504 188.325 128.943 199.316" stroke="black" stroke-width="1.069" stroke-miterlimit="10"/>
<path d="M152.568 167.744C152.568 167.744 156.053 165.585 155.232 164.09C154.421 162.595 143.859 170.049 144.122 172.018" stroke="black" stroke-width="1.069" stroke-miterlimit="10"/>
<path d="M151.187 165.48C151.187 165.48 153.357 161.184 152.114 160.647C150.871 160.121 146.438 167.27 145.922 169.459" stroke="black" stroke-width="1.069" stroke-miterlimit="10"/>
<path d="M151.864 198.8L133.572 191.767" stroke="black" stroke-width="1.069" stroke-miterlimit="10"/>
<path d="M149.46 206.434L129.662 198.232" stroke="black" stroke-width="1.069" stroke-miterlimit="10"/>
<path d="M149.497 197.894L146.675 205.274" stroke="black" stroke-width="1.069" stroke-miterlimit="10"/>
<path d="M145.987 196.547L143.154 203.822" stroke="black" stroke-width="1.069" stroke-miterlimit="10"/>
<path d="M142.703 195.146L139.944 202.327" stroke="black" stroke-width="1.069" stroke-miterlimit="10"/>
<path d="M139.073 193.798L136.566 200.968" stroke="black" stroke-width="1.069" stroke-miterlimit="10"/>
<path d="M136.004 192.682L133.013 199.579" stroke="black" stroke-width="1.069" stroke-miterlimit="10"/>
<path d="M94.5651 157.279C94.5651 160.459 97.1662 163.028 100.368 163.028C103.569 163.028 106.17 160.448 106.17 157.279C106.17 154.1 103.569 151.531 100.368 151.531C97.1662 151.531 94.5651 154.1 94.5651 157.279Z" stroke="black" stroke-width="2.138" stroke-miterlimit="10"/>
<path d="M117.945 180.376C117.945 183.04 114.238 185.209 109.657 185.209C105.076 185.209 101.369 183.051 101.369 180.376C101.369 177.713 105.076 175.544 109.657 175.544C114.238 175.544 117.945 177.713 117.945 180.376Z" fill="#049478" stroke="#211F21" stroke-width="1.069" stroke-miterlimit="10"/>
<path d="M119.837 139.434H112.55C107.706 139.434 103.746 143.95 103.746 149.457V160.753C103.746 161.069 103.767 161.385 103.788 161.7C103.714 162.037 103.662 162.374 103.662 162.732V169.607V169.986V176.861C103.662 179.356 105.705 181.398 108.201 181.398H111.086C113.582 181.398 115.625 179.356 115.625 176.861V170.776H119.837C124.682 170.776 128.641 166.259 128.641 160.753V149.457C128.652 143.94 124.682 139.434 119.837 139.434Z" fill="white" stroke="black" stroke-width="1.069" stroke-miterlimit="10"/>
<path d="M114.077 153.14C114.077 154.046 114.814 154.783 115.72 154.783C116.625 154.783 117.362 154.046 117.362 153.14C117.362 152.235 116.625 151.498 115.72 151.498C114.814 151.509 114.077 152.235 114.077 153.14Z" fill="#141414"/>
<path d="M124.829 152.908C124.829 153.687 125.461 154.308 126.229 154.308C127.009 154.308 127.63 153.676 127.63 152.908C127.63 152.129 126.998 151.508 126.229 151.508C125.461 151.508 124.829 152.129 124.829 152.908Z" fill="#141414"/>
<path d="M123.251 159.626C123.251 159.626 122.429 162.027 120.681 162.195C118.933 162.364 117.564 160.426 117.469 158.921L123.251 159.626Z" fill="#F7F6F6"/>
<path d="M122.681 159.468C122.66 159.531 122.639 159.583 122.608 159.647C122.681 159.468 122.597 159.678 122.566 159.741C122.523 159.836 122.471 159.931 122.429 160.026C122.176 160.489 121.965 160.815 121.597 161.152C121.239 161.478 120.775 161.689 120.228 161.605C119.691 161.521 119.185 161.152 118.827 160.71C118.616 160.457 118.437 160.152 118.311 159.868C118.174 159.562 118.09 159.194 118.069 158.92C117.869 159.12 117.679 159.31 117.479 159.51C119.164 159.72 120.849 159.92 122.534 160.131C122.776 160.162 123.008 160.194 123.25 160.215C123.566 160.257 123.84 159.92 123.84 159.625C123.84 159.278 123.566 159.078 123.25 159.036C121.565 158.825 119.88 158.625 118.195 158.415C117.953 158.383 117.721 158.352 117.479 158.33C117.174 158.299 116.868 158.625 116.889 158.92C117.005 160.51 118.069 162.173 119.648 162.668C121.186 163.152 122.523 162.173 123.292 160.91C123.503 160.552 123.692 160.173 123.829 159.783C123.935 159.489 123.713 159.141 123.419 159.057C123.082 158.962 122.787 159.162 122.681 159.468Z" fill="#141414"/>
<path d="M112.448 163.269C114.705 163.269 116.534 161.44 116.534 159.184C116.534 156.928 114.705 155.099 112.448 155.099C110.191 155.099 108.362 156.928 108.362 159.184C108.362 161.44 110.191 163.269 112.448 163.269Z" fill="#E4B0C8"/>
<path d="M127.554 156.414C127.806 156.414 128.038 156.446 128.27 156.499V160.731C128.27 161.363 128.249 161.973 128.122 162.574C127.954 162.605 127.733 162.626 127.554 162.626C125.837 162.626 124.447 161.236 124.447 159.52C124.447 157.804 125.837 156.414 127.554 156.414Z" fill="#E4B0C8"/>
<path d="M121.414 151.51L121.077 157.1L123.752 155.468L121.414 151.51Z" fill="#D96980"/>
<path d="M105.737 155.099L107.001 148.245C107.001 148.245 114.099 150.509 119.523 146.171C124.946 141.823 116.047 140.076 117.48 143.318C118.912 146.55 123.893 147.887 130.043 147.203C139.205 146.192 139.437 135.128 134.171 131.885C128.906 128.632 122.956 132.454 122.956 132.454C122.956 132.454 125.694 126.969 118.838 125.137C113.204 123.631 108.981 128.4 108.36 130.506C108.36 130.506 99.0713 131.422 94.9431 137.254C90.815 143.087 90.4885 150.056 94.564 156.415C98.6395 162.774 103.505 166.195 103.505 166.195C103.505 166.195 104.305 157.973 105.737 155.099Z" fill="black"/>
<path d="M94.569 157.279C94.569 160.459 97.1701 163.028 100.372 163.028C103.573 163.028 106.174 160.448 106.174 157.279C106.174 154.1 103.573 151.531 100.372 151.531C97.1701 151.531 94.569 154.1 94.569 157.279Z" fill="white"/>
<path d="M104.23 158.037C104.262 157.532 104.177 156.995 104.04 156.51C103.756 155.521 103.124 154.626 102.176 154.194C101.418 153.847 100.576 153.752 99.7437 153.847C99.3646 153.889 98.996 154.152 99.0171 154.573C99.0382 154.931 99.333 155.342 99.7437 155.3C100.091 155.268 100.439 155.258 100.786 155.289C100.818 155.289 100.86 155.3 100.892 155.3C100.67 155.289 100.807 155.289 100.86 155.3C100.923 155.31 100.986 155.321 101.06 155.342C101.197 155.373 101.323 155.415 101.45 155.458C101.629 155.521 101.302 155.384 101.471 155.468C101.523 155.489 101.576 155.521 101.618 155.542C101.724 155.594 101.818 155.689 101.924 155.731C101.776 155.668 101.808 155.637 101.86 155.689C101.882 155.71 101.903 155.721 101.924 155.742C101.966 155.773 101.997 155.805 102.04 155.847C102.113 155.921 102.176 156.016 102.261 156.089C102.092 155.921 102.208 156.016 102.25 156.079C102.282 156.121 102.303 156.152 102.324 156.195C102.377 156.279 102.429 156.374 102.471 156.458C102.492 156.5 102.513 156.553 102.534 156.595C102.577 156.668 102.461 156.405 102.503 156.51C102.513 156.531 102.524 156.553 102.524 156.574C102.556 156.668 102.587 156.763 102.619 156.858C102.671 157.016 102.703 157.184 102.735 157.342C102.745 157.374 102.745 157.416 102.756 157.447C102.777 157.595 102.735 157.237 102.745 157.374C102.756 157.447 102.756 157.511 102.766 157.584C102.777 157.732 102.787 157.89 102.777 158.037C102.756 158.416 103.124 158.774 103.503 158.763C103.925 158.742 104.209 158.448 104.23 158.037Z" fill="#090909"/>
<path d="M173.891 196.989H77.4688C72.8983 196.989 69.1914 193.283 69.1914 188.714V136.906C69.1914 132.337 72.8983 128.631 77.4688 128.631H173.891C178.462 128.631 182.168 132.337 182.168 136.906V188.714C182.179 193.283 178.472 196.989 173.891 196.989Z" stroke="black" stroke-width="1.069" stroke-miterlimit="10"/>
<path d="M457.89 365.825H340.154C335.42 365.825 331.583 361.989 331.583 357.257V281.502C331.583 276.769 335.42 272.933 340.154 272.933H457.89C462.624 272.933 466.461 276.769 466.461 281.502V357.257C466.461 361.989 462.624 365.825 457.89 365.825Z" fill="#D0EEDE"/>
<path d="M402.207 357.236C402.185 358.468 401.429 359.624 400.251 360.056C399.04 360.489 397.667 360.121 396.857 359.116C396.079 358.155 395.992 356.761 396.63 355.702C397.257 354.654 398.521 354.059 399.732 354.286C401.159 354.535 402.185 355.788 402.207 357.236C402.218 358.101 403.569 358.111 403.558 357.236C403.536 355.41 402.412 353.8 400.705 353.152C399.018 352.514 397.008 353.054 395.873 354.448C394.717 355.864 394.522 357.884 395.462 359.462C396.403 361.04 398.24 361.829 400.045 361.504C402.088 361.137 403.536 359.268 403.569 357.236C403.569 356.361 402.218 356.361 402.207 357.236Z" fill="black"/>
<path d="M448.954 349.142H349.074C344.34 349.142 340.503 345.307 340.503 340.574V286.905C340.503 282.172 344.34 278.336 349.074 278.336H448.954C453.689 278.336 457.526 282.172 457.526 286.905V340.574C457.526 345.307 453.689 349.142 448.954 349.142Z" fill="white"/>
<path d="M328.868 347.457C328.868 347.457 346.539 330.591 365.346 327.101C384.153 323.621 421.82 323.967 442.205 350.904C462.589 377.852 412.492 401.689 411.109 401.862C409.725 402.034 328.349 388.42 325.236 386.075C322.123 383.73 310.385 369.738 328.868 347.457Z" fill="#049478" stroke="black" stroke-width="0.997312" stroke-miterlimit="10"/>
<path d="M405.609 333.573C405.609 333.573 436.077 394.773 429.257 406.465C422.437 418.156 371.951 429.307 346.757 416.535C317.293 401.602 356.052 339.581 365.207 325.285L405.609 333.573Z" fill="#049478" stroke="black" stroke-width="0.997312" stroke-miterlimit="10"/>
<path d="M358.373 347.458C358.373 351.305 361.497 354.428 365.345 354.428C369.192 354.428 372.316 351.305 372.316 347.458C372.316 343.612 369.192 340.489 365.345 340.489C361.497 340.489 358.373 343.612 358.373 347.458Z" fill="white"/>
<path d="M448.95 349.142H349.069C344.335 349.142 340.498 345.307 340.498 340.574V286.905C340.498 282.172 344.335 278.336 349.069 278.336H448.95C453.684 278.336 457.521 282.172 457.521 286.905V340.574C457.521 345.307 453.684 349.142 448.95 349.142Z" stroke="black" stroke-width="1.09715" stroke-miterlimit="10"/>
<path d="M409.915 330.118C410.811 321.379 400.581 313.172 387.065 311.787C373.55 310.402 361.867 316.363 360.971 325.101C360.074 333.84 370.304 342.047 383.82 343.432C397.335 344.817 409.018 338.856 409.915 330.118Z" fill="#049478" stroke="black" stroke-width="1.06599" stroke-miterlimit="10"/>
<path d="M372.447 303.394C372.447 306.917 375.333 309.78 378.889 309.78C382.445 309.78 385.331 306.917 385.331 303.394C385.331 299.872 382.445 297.008 378.889 297.008C375.333 297.008 372.447 299.872 372.447 303.394Z" stroke="black" stroke-width="2.06276" stroke-miterlimit="10"/>
<path d="M400.509 283.576H392.413C387.031 283.576 382.632 288.59 382.632 294.705V307.239C382.632 307.596 382.653 307.942 382.675 308.287C382.588 308.655 382.534 309.044 382.534 309.433V317.061V317.483V325.111C382.534 327.877 384.804 330.146 387.571 330.146H390.781C393.548 330.146 395.818 327.877 395.818 325.111V318.358H400.498C405.88 318.358 410.279 313.344 410.279 307.228V294.694C410.29 288.59 405.891 283.576 400.509 283.576Z" fill="white" stroke="black" stroke-width="1.03132" stroke-miterlimit="10"/>
<path d="M394.094 298.801C394.094 299.806 394.915 300.628 395.92 300.628C396.926 300.628 397.747 299.806 397.747 298.801C397.747 297.797 396.926 296.975 395.92 296.975C394.915 296.986 394.094 297.797 394.094 298.801Z" fill="#0C0C0C"/>
<path d="M406.042 298.543C406.042 299.408 406.734 300.099 407.599 300.099C408.463 300.099 409.155 299.397 409.155 298.543C409.155 297.679 408.463 296.987 407.599 296.987C406.734 296.987 406.042 297.679 406.042 298.543Z" fill="#0C0C0C"/>
<path d="M404.296 305.997C404.296 305.997 403.378 308.666 401.443 308.85C399.508 309.033 397.984 306.883 397.887 305.208L404.296 305.997Z" fill="#FFF7F7"/>
<path d="M403.75 305.846C403.728 305.911 403.696 305.976 403.674 306.041C403.739 305.868 403.641 306.116 403.62 306.17C403.566 306.278 403.523 306.376 403.469 306.484C403.209 306.97 402.928 307.38 402.528 307.748C402.107 308.137 401.545 308.364 400.95 308.277C400.302 308.18 399.74 307.759 399.329 307.262C398.853 306.7 398.508 305.954 398.453 305.209C398.27 305.392 398.075 305.587 397.891 305.77C399.761 305.997 401.642 306.224 403.512 306.462C403.782 306.494 404.041 306.527 404.312 306.559C404.614 306.592 404.874 306.268 404.874 305.997C404.874 305.662 404.614 305.468 404.312 305.435C402.442 305.209 400.561 304.982 398.691 304.744C398.421 304.712 398.162 304.679 397.891 304.647C397.6 304.614 397.308 304.938 397.329 305.209C397.459 306.937 398.616 308.753 400.323 309.293C401.999 309.812 403.436 308.753 404.268 307.38C404.506 306.991 404.712 306.581 404.852 306.149C405.09 305.457 403.987 305.165 403.75 305.846Z" fill="#0C0C0C"/>
<path d="M387.766 305.512C387.766 308.018 389.798 310.039 392.294 310.039C394.791 310.039 396.823 308.008 396.823 305.512C396.823 303.005 394.791 300.984 392.294 300.984C389.798 300.984 387.766 303.005 387.766 305.512Z" fill="#E4B0C8"/>
<path d="M409.077 302.442C409.358 302.442 409.617 302.475 409.877 302.539V307.24C409.877 307.942 409.855 308.623 409.704 309.282C409.509 309.315 409.272 309.336 409.077 309.336C407.175 309.336 405.629 307.791 405.629 305.889C405.618 303.987 407.164 302.442 409.077 302.442Z" fill="#E4B0C8"/>
<path d="M402.246 296.987L401.878 303.189L404.84 301.385L402.246 296.987Z" fill="#DB7294"/>
<path d="M384.759 303.188L386.251 293.366C386.251 293.366 413.434 296.769 422.243 283.576C431.052 270.372 421.8 265.154 417.314 265.899C412.829 266.645 407.597 273.063 407.597 273.063C407.597 273.063 411.769 267.39 407.597 266.493C403.425 265.597 398.821 269.929 396.421 274.403C396.421 274.403 378.501 272.728 372.448 283.566C366.396 294.403 371.303 302.096 382.381 313.291L383.116 307.024L384.759 303.188Z" fill="black"/>
<path d="M372.454 303.394C372.454 306.917 375.34 309.78 378.896 309.78C382.452 309.78 385.338 306.917 385.338 303.394C385.338 299.871 382.452 297.008 378.896 297.008C375.34 297.008 372.454 299.871 372.454 303.394Z" fill="white"/>
<path d="M383.085 304.236C383.118 303.685 383.031 303.101 382.88 302.572C382.577 301.502 381.896 300.53 380.859 300.054C380.027 299.676 379.108 299.59 378.211 299.676C377.843 299.708 377.497 299.968 377.508 300.378C377.519 300.724 377.822 301.113 378.211 301.081C378.6 301.038 378.978 301.027 379.367 301.07C379.389 301.07 379.475 301.07 379.486 301.081C379.465 301.048 379.335 301.059 379.486 301.081C379.562 301.092 379.637 301.113 379.702 301.124C379.854 301.156 379.994 301.21 380.145 301.254C380.329 301.318 380.027 301.189 380.199 301.275C380.254 301.308 380.308 301.329 380.372 301.362C380.416 301.383 380.686 301.589 380.707 301.578C380.686 301.589 380.567 301.459 380.664 301.545C380.686 301.567 380.707 301.578 380.729 301.599C380.772 301.632 380.816 301.675 380.859 301.718C380.934 301.794 381.01 301.924 381.097 301.988C380.988 301.913 381.01 301.87 381.064 301.945C381.075 301.967 381.086 301.978 381.097 301.999C381.129 302.042 381.151 302.086 381.183 302.129C381.248 302.226 381.302 302.323 381.345 302.431C381.367 302.485 381.388 302.529 381.421 302.583C381.464 302.658 381.345 302.399 381.388 302.507C381.399 302.529 381.41 302.55 381.421 302.572C381.464 302.68 381.496 302.777 381.529 302.885C381.583 303.058 381.626 303.242 381.659 303.426C381.669 303.469 381.669 303.501 381.68 303.544C381.702 303.696 381.659 303.339 381.669 303.49C381.68 303.566 381.691 303.642 381.691 303.717C381.702 303.89 381.713 304.052 381.702 304.225C381.68 304.593 382.037 304.938 382.404 304.928C382.783 304.917 383.064 304.636 383.085 304.236Z" fill="#020202"/>
<path d="M396.418 274.403C396.418 274.403 378.509 292.901 371.083 298.531C371.083 298.531 361.431 277.169 366.911 271.204C371.299 266.429 392.743 269.238 396.418 274.403Z" fill="#FFBA7B" stroke="black" stroke-width="1.03132" stroke-miterlimit="10"/>
<path d="M390.496 270.923L368.663 292.448" stroke="black" stroke-width="1.03132" stroke-miterlimit="10"/>
<path d="M401.399 320.399L404.318 331.237L382.214 338.239L381.069 333.712L372.898 328.86L376.281 319.719L385.954 327.239L386.592 327.769C386.592 327.769 386.949 328.363 388.732 327.38C390.526 326.375 401.399 320.399 401.399 320.399Z" fill="#049478"/>
<path d="M402.255 319.926L381.168 331.532L381.038 334.287" stroke="black" stroke-width="1.03132" stroke-miterlimit="10"/>
<path d="M375.762 319.688L387.251 328.181" stroke="black" stroke-width="1.03132" stroke-miterlimit="10"/>
<path d="M375.764 332.308C375.764 332.308 360.849 342.195 350.667 338.23" stroke="black" stroke-width="1.03132" stroke-miterlimit="10"/>
<path d="M375.398 333.886C376.317 333.886 377.062 333.141 377.062 332.222C377.062 331.303 376.317 330.558 375.398 330.558C374.479 330.558 373.734 331.303 373.734 332.222C373.734 333.141 374.479 333.886 375.398 333.886Z" stroke="black" stroke-width="1.03132" stroke-miterlimit="10"/>
<path d="M394.452 335.992C394.452 336.943 395.22 337.71 396.171 337.71C397.122 337.71 397.889 336.943 397.889 335.992C397.889 335.041 397.122 334.274 396.171 334.274C395.22 334.285 394.452 335.052 394.452 335.992Z" stroke="black" stroke-width="1.03132" stroke-miterlimit="10"/>
<path d="M396.169 335.992C396.169 335.992 402.254 353.551 412.879 358.651" stroke="black" stroke-width="1.03132" stroke-miterlimit="10"/>
<path d="M501.941 146.559H327.032C321.006 146.559 316.125 141.68 316.125 135.655V10.904C316.125 4.87916 321.006 0 327.032 0H501.941C507.968 0 512.849 4.87916 512.849 10.904V135.655C512.849 141.68 507.968 146.559 501.941 146.559Z" fill="#FFBA7B"/>
<path d="M416.829 164.962H399.687C396.617 164.962 394.55 161.821 395.776 159.001L405.016 137.674L412.918 119.423C414.401 115.994 419.265 115.994 420.748 119.423L428.65 137.674L437.89 159.001C439.108 161.813 437.049 164.962 433.979 164.962H416.829Z" fill="#FFBA7B"/>
<path d="M422.057 130.119C422.057 132.9 419.805 135.151 417.024 135.151C414.243 135.151 411.991 132.9 411.991 130.119C411.991 127.339 414.243 125.088 417.024 125.088C419.805 125.088 422.057 127.339 422.057 130.119Z" stroke="black" stroke-width="0.813511" stroke-miterlimit="10"/>
<path d="M499.313 119.039H332.883C330.118 119.039 327.882 116.795 327.882 114.039V16.2639C327.882 13.4998 330.126 11.2645 332.883 11.2645H499.313C502.078 11.2645 504.314 13.5078 504.314 16.2639V114.039C504.314 116.803 502.078 119.039 499.313 119.039Z" fill="white" stroke="black" stroke-width="0.813511" stroke-miterlimit="10"/>
<path d="M350.131 106.147H449.097C455.052 106.147 459.877 101.324 459.877 95.3716V25.9818C459.877 20.029 455.052 15.2059 449.097 15.2059H350.131C344.176 15.2059 339.352 20.029 339.352 25.9818V95.3797C339.352 101.324 344.176 106.147 350.131 106.147Z" fill="white" stroke="black" stroke-width="0.813511" stroke-miterlimit="10"/>
<path d="M351.112 23.5296C351.112 24.6673 350.199 25.5887 349.077 25.5887C347.955 25.5887 347.041 24.6673 347.041 23.5296C347.041 22.3919 347.955 21.4705 349.077 21.4705C350.199 21.4705 351.112 22.3919 351.112 23.5296Z" fill="#EC6060" stroke="black" stroke-width="0.813511" stroke-miterlimit="10"/>
<path d="M359.224 23.5296C359.224 24.6673 358.31 25.5887 357.188 25.5887C356.066 25.5887 355.152 24.6673 355.152 23.5296C355.152 22.3919 356.066 21.4705 357.188 21.4705C358.318 21.4705 359.224 22.3919 359.224 23.5296Z" fill="#FFBA7B" stroke="black" stroke-width="0.813511" stroke-miterlimit="10"/>
<path d="M367.345 23.5296C367.345 24.6673 366.431 25.5887 365.309 25.5887C364.187 25.5887 363.273 24.6673 363.273 23.5296C363.273 22.3919 364.187 21.4705 365.309 21.4705C366.431 21.4705 367.345 22.3919 367.345 23.5296Z" fill="#049478" stroke="black" stroke-width="0.813511" stroke-miterlimit="10"/>
<path d="M339.617 30.7476H459.862" stroke="black" stroke-width="0.813511" stroke-miterlimit="10"/>
<path d="M453.029 68.8599H430.581V82.849H453.029V68.8599Z" stroke="#88E5D4" stroke-width="0.813511" stroke-miterlimit="10"/>
<path d="M433.329 72.5377H449.63" stroke="#88E5D4" stroke-width="0.813511" stroke-miterlimit="10"/>
<path d="M433.329 75.0865H449.63" stroke="#88E5D4" stroke-width="0.813511" stroke-miterlimit="10"/>
<path d="M433.329 77.6331H449.63" stroke="#88E5D4" stroke-width="0.813511" stroke-miterlimit="10"/>
<path d="M403.984 54.4865V38.0704C394.912 38.0704 387.563 45.4172 387.563 54.4865C387.563 63.5559 394.912 70.9026 403.984 70.9026C413.056 70.9026 420.405 63.5559 420.405 54.4865C420.405 53.3008 420.268 52.1391 420.028 51.0255L403.984 54.4865Z" fill="#EC6060"/>
<path d="M422.049 48.1503C420.462 40.7471 413.882 35.1947 406.004 35.1947V51.6115L422.049 48.1503Z" fill="#FFA370"/>
<path d="M373.11 39.0403H353.427C352.666 39.0403 352.041 38.4233 352.041 37.6542C352.041 36.893 352.658 36.2681 353.427 36.2681H373.11C373.872 36.2681 374.497 36.885 374.497 37.6542C374.489 38.4233 373.872 39.0403 373.11 39.0403Z" stroke="#88E5D4" stroke-width="0.813511" stroke-miterlimit="10"/>
<path d="M353.453 41.1002H372.503" stroke="#88E5D4" stroke-width="0.813511" stroke-miterlimit="10"/>
<path d="M353.453 43.6466H372.503" stroke="#88E5D4" stroke-width="0.813511" stroke-miterlimit="10"/>
<path d="M353.453 46.1875H372.503" stroke="#88E5D4" stroke-width="0.813511" stroke-miterlimit="10"/>
<path d="M375.907 38.0957H383.096L393.458 47.582" stroke="#88E5D4" stroke-width="0.813511" stroke-miterlimit="10"/>
<path d="M451.634 40.6429H431.951C431.19 40.6429 430.564 40.026 430.564 39.2568C430.564 38.4957 431.182 37.8707 431.951 37.8707H451.634C452.395 37.8707 453.02 38.4877 453.02 39.2568C453.02 40.026 452.403 40.6429 451.634 40.6429Z" stroke="#88E5D4" stroke-width="0.813511" stroke-miterlimit="10"/>
<path d="M432.001 42.7007H451.051" stroke="#88E5D4" stroke-width="0.813511" stroke-miterlimit="10"/>
<path d="M432.001 45.2494H451.051" stroke="#88E5D4" stroke-width="0.813511" stroke-miterlimit="10"/>
<path d="M432.001 47.7885H451.051" stroke="#88E5D4" stroke-width="0.813511" stroke-miterlimit="10"/>
<path d="M432.001 50.4331H451.051" stroke="#88E5D4" stroke-width="0.813511" stroke-miterlimit="10"/>
<path d="M432.001 52.9799H451.051" stroke="#88E5D4" stroke-width="0.813511" stroke-miterlimit="10"/>
<path d="M432.001 55.5287H451.051" stroke="#88E5D4" stroke-width="0.813511" stroke-miterlimit="10"/>
<path d="M415.979 45.7064L422.928 40.0098H429.099" stroke="#88E5D4" stroke-width="0.813511" stroke-miterlimit="10"/>
<path d="M354.893 61.0181V93.2734H403.724" stroke="#88E5D4" stroke-width="0.813511" stroke-miterlimit="10"/>
<path d="M354.892 61.1935H353.145L354.019 59.6872L354.892 58.1809L355.758 59.6872L356.631 61.1935H354.892Z" fill="#88E5D4"/>
<path d="M403.202 93.2711V91.5325L404.717 92.3978L406.223 93.2711L404.717 94.1444L403.202 95.0177V93.2711Z" fill="#88E5D4"/>
<path d="M350.849 90.6066L362.726 79.9104L372.495 90.4143L384.821 67.8522L393.829 89.8694" stroke="#FFBA7B" stroke-width="0.813511" stroke-miterlimit="10"/>
<path d="M346.79 74.6922C346.79 74.6922 347.223 74.2435 347.945 73.5865" stroke="#EC6060" stroke-width="0.813511" stroke-miterlimit="10"/>
<path d="M350.33 71.6162C353.488 69.2447 358.048 66.8011 360.949 69.5972C365.749 74.22 364.611 77.7772 374.252 75.7022C383.316 73.7553 394.44 76.4473 397.71 91.91" stroke="#EC6060" stroke-width="0.813511" stroke-miterlimit="10" stroke-dasharray="3.14 3.14"/>
<path d="M397.99 93.433C398.078 93.9458 398.159 94.4746 398.231 95.0194" stroke="#EC6060" stroke-width="0.813511" stroke-miterlimit="10"/>
<path d="M498.683 56.5C498.683 56.5 528.327 68.085 544.035 118.191L523.959 128.149L509.101 90.2215L498.683 56.5Z" fill="#049478" stroke="black" stroke-width="0.813511" stroke-miterlimit="10"/>
<path d="M410.304 66.4184C410.304 66.4184 405.255 63.1736 405.88 61.6274C406.505 60.0811 407.971 60.9464 407.971 60.9464C407.971 60.9464 406.465 60.025 407.162 58.9995C407.859 57.982 408.805 58.3586 408.805 58.3586C408.805 58.3586 407.739 56.7963 408.765 56.2114C409.791 55.6346 411.337 56.0031 411.337 56.0031C411.337 56.0031 410.744 54.7052 410.776 54.2405C410.808 53.7839 411.474 52.7664 413.621 53.2711C415.777 53.7678 420.377 56.3316 421.932 57.1248C423.487 57.9179 425.234 59.7446 425.29 59.1517C425.338 58.5589 426.003 54.7773 427.478 53.6717C428.945 52.5661 429.53 52.3898 429.794 54.4889C430.058 56.588 429.986 62.4366 432.831 66.7469C435.676 71.0572 436.646 73.9254 439.651 77.4186C442.657 80.9117 444.035 82.6743 444.035 82.6743L430.491 93.6985C430.491 93.6985 417.348 73.9254 417.252 73.7892C417.156 73.661 412.892 68.4294 410.304 66.4184Z" fill="white"/>
<path d="M407.525 60.8422C407.525 60.8422 405.842 58.102 408.992 58.4386C412.141 58.7751 416.413 61.6835 418.465 63.2298" stroke="black" stroke-width="0.813511" stroke-miterlimit="10"/>
<path d="M421.897 69.4312C421.897 69.4312 420.743 65.914 425.768 64.4559C425.768 64.4559 423.853 56.9889 427.475 53.6721C431.098 50.3552 429.126 58.8957 431.546 64.0954C433.967 69.295 436.716 74.3104 439.296 77.0504C441.877 79.7904 444.105 82.7708 444.105 82.7708L430.408 93.7629C430.408 93.7629 425.728 86.6485 418.507 75.6163C411.287 64.5841 404.915 64.3357 405.885 61.6277C407.079 58.2948 415.59 66.1464 415.59 66.1464" stroke="black" stroke-width="0.813511" stroke-miterlimit="10"/>
<path d="M408.99 58.4395C408.99 58.4395 407.371 56.4445 409.43 55.9237C409.775 55.8356 410.2 55.8276 410.689 55.8917C413.165 56.2121 417.284 58.2953 420.289 60.6188" stroke="black" stroke-width="0.813511" stroke-miterlimit="10"/>
<path d="M425.317 59.7217C425.317 59.7217 419.419 54.2174 412.695 53.3121C410.258 52.9836 410.363 55.4112 412.751 56.4207" stroke="black" stroke-width="0.813511" stroke-miterlimit="10"/>
<path d="M453.902 89.5954C451.994 88.3135 450.047 86.639 448.18 84.8284C442.121 78.9397 436.944 71.601 436.944 71.601L422.054 84.3557C422.054 84.3557 438.298 109.561 448.052 112.709C457.805 115.858 480.108 90.5087 480.108 90.5087L481.863 57.1558C481.863 57.1558 477.672 59.4071 474.306 62.4435C468.784 67.4268 459.127 76.3439 448.188 84.8284" fill="#049478"/>
<path d="M453.902 89.5954C451.994 88.3135 450.047 86.639 448.18 84.8284C442.121 78.9397 436.944 71.601 436.944 71.601L422.054 84.3557C422.054 84.3557 438.298 109.561 448.052 112.709C457.805 115.858 480.108 90.5087 480.108 90.5087L481.863 57.1558C481.863 57.1558 477.672 59.4071 474.306 62.4435C468.784 67.4268 459.127 76.3439 448.188 84.8284" stroke="black" stroke-width="0.813511" stroke-miterlimit="10"/>
<path d="M441.801 77.866C438.891 74.3727 436.944 71.6085 436.944 71.6085L422.054 84.3638C422.054 84.3638 423.945 87.2962 426.814 91.2783L441.801 77.866Z" fill="white" stroke="black" stroke-width="0.813511" stroke-miterlimit="10"/>
<path d="M438.149 76.4402C438.149 77.001 437.693 77.4497 437.14 77.4497C436.579 77.4497 436.13 76.993 436.13 76.4402C436.13 75.8874 436.587 75.4307 437.14 75.4307C437.693 75.4307 438.149 75.8793 438.149 76.4402Z" fill="white" stroke="black" stroke-width="0.813511" stroke-miterlimit="10"/>
<path d="M522.303 120.433C522.303 120.152 522.303 114.472 522.303 114.2C522.303 81.3514 508.326 54.7203 491.08 54.7203C473.833 54.7203 459.856 81.3514 459.856 114.2C459.856 114.48 459.856 120.16 459.856 120.433H522.303Z" fill="#049478"/>
<path d="M490.984 69.6316V120.434" stroke="black" stroke-width="0.813511" stroke-miterlimit="10"/>
<path d="M491.077 70.1604L503.114 59.304C499.411 56.3555 495.34 54.713 491.077 54.713C486.949 54.713 482.638 56.5318 479.031 59.2959L491.077 70.1604Z" fill="white" stroke="black" stroke-width="0.813511" stroke-miterlimit="10"/>
<path d="M464.344 83.4669C461.499 92.432 459.856 102.951 459.856 114.2C459.856 114.48 459.856 120.161 459.856 120.433H522.303C522.303 120.153 522.303 114.472 522.303 114.2C522.303 102.695 520.588 91.9513 517.615 82.85" stroke="black" stroke-width="0.813511" stroke-miterlimit="10"/>
<path d="M503.125 59.3036C499.423 56.3472 495.352 54.7207 491.088 54.7207C486.833 54.7207 482.786 56.3391 479.083 59.2716" stroke="black" stroke-width="0.813511" stroke-miterlimit="10"/>
<path d="M499.313 119.039H332.883C330.118 119.039 327.882 116.795 327.882 114.039V16.2639C327.882 13.4998 330.126 11.2645 332.883 11.2645H499.313C502.078 11.2645 504.314 13.5078 504.314 16.2639V114.039C504.314 116.803 502.078 119.039 499.313 119.039Z" stroke="black" stroke-width="0.813511" stroke-miterlimit="10"/>
<path d="M503.486 62.525L496.842 52.5499C495.544 50.5949 493.099 49.8739 490.992 50.651C488.884 49.8658 486.44 50.5949 485.141 52.5499L478.498 62.525C476.983 64.8004 477.6 67.8771 479.876 69.3994L480.83 70.0323C483.106 71.5466 486.183 70.9297 487.706 68.6542L491 63.7108L494.294 68.6542C495.808 70.9297 498.886 71.5466 501.17 70.0323L502.123 69.3994C504.383 67.8771 505.001 64.8004 503.486 62.525Z" fill="#FEFEFF" stroke="black" stroke-width="0.813511" stroke-miterlimit="10"/>
<path d="M492.051 61.3465C492.051 61.8753 491.619 62.3079 491.09 62.3079C490.561 62.3079 490.128 61.8753 490.128 61.3465C490.128 60.8177 490.561 60.385 491.09 60.385C491.619 60.385 492.051 60.8177 492.051 61.3465Z" fill="#FEFEFF" stroke="black" stroke-width="0.813511" stroke-miterlimit="10"/>
<path d="M504.188 37.7764C504.188 40.6127 501.872 42.9121 499.011 42.9121C496.15 42.9121 493.834 40.6127 493.834 37.7764C493.834 34.9401 496.15 32.6406 499.011 32.6406C501.872 32.6406 504.188 34.9401 504.188 37.7764Z" stroke="black" stroke-width="1.62702" stroke-miterlimit="10"/>
<path d="M481.62 21.8401H488.127C492.455 21.8401 495.989 25.87 495.989 30.7892V40.868C495.989 41.1484 495.973 41.4288 495.949 41.7093C496.021 42.0057 496.061 42.3181 496.061 42.6306V48.7676V49.1121V55.2491C496.061 57.4764 494.242 59.2951 492.014 59.2951H489.433C487.205 59.2951 485.386 57.4764 485.386 55.2491V49.8172H481.628C477.3 49.8172 473.766 45.7872 473.766 40.868V30.7892C473.758 25.87 477.292 21.8401 481.62 21.8401Z" fill="white" stroke="black" stroke-width="0.813511" stroke-miterlimit="10"/>
<path d="M494.28 37.6156L493.078 29.716C493.078 29.716 471.223 32.456 464.139 21.8404C457.054 11.2249 464.499 7.02669 468.098 7.62757C471.696 8.22845 475.912 13.388 475.912 13.388C475.912 13.388 472.562 8.82933 475.912 8.10828C479.261 7.38722 482.972 10.8723 484.895 14.4696C484.895 14.4696 499.297 13.1236 504.169 21.8404C509.042 30.5572 505.091 36.7343 496.187 45.7395L495.594 40.7001L494.28 37.6156Z" fill="black"/>
<path d="M519.351 12.2746C519.351 17.3863 515.207 21.5286 510.094 21.5286C504.981 21.5286 500.838 17.3863 500.838 12.2746C500.838 7.16289 504.981 3.02063 510.094 3.02063C515.207 3.02864 519.351 7.1709 519.351 12.2746Z" fill="black"/>
<path d="M492.314 39.1613C492.314 41.2204 490.639 42.8949 488.58 42.8949C486.52 42.8949 484.845 41.2204 484.845 39.1613C484.845 37.1021 486.52 35.4276 488.58 35.4276C490.647 35.4276 492.314 37.1021 492.314 39.1613Z" fill="#E4B0C8"/>
<path d="M474.755 36.1797C474.531 36.1797 474.306 36.2117 474.098 36.2598V40.1297C474.098 40.7065 474.034 41.2754 474.154 41.8202C474.307 41.8442 474.595 41.8603 474.755 41.8603C476.326 41.8603 477.6 40.5863 477.6 39.016C477.6 37.4456 476.326 36.1797 474.755 36.1797Z" fill="#E4B0C8"/>
<path d="M485.573 33.9456C485.573 34.6827 484.98 35.2756 484.242 35.2756C483.505 35.2756 482.912 34.6827 482.912 33.9456C482.912 33.2085 483.505 32.6156 484.242 32.6156C484.98 32.6236 485.573 33.2165 485.573 33.9456Z" fill="#141414"/>
<path d="M476.879 33.7529C476.879 34.3778 476.375 34.8826 475.741 34.8826C475.116 34.8826 474.611 34.3778 474.611 33.7529C474.611 33.1279 475.116 32.6232 475.741 32.6232C476.375 32.6232 476.879 33.1279 476.879 33.7529Z" fill="#141414"/>
<path d="M478.146 39.1859C478.146 39.1859 478.811 41.1328 480.221 41.261C481.632 41.3972 482.738 39.8349 482.818 38.609L478.146 39.1859Z" fill="#F7F6F6"/>
<path d="M477.708 39.3058C477.965 40.051 478.421 40.7801 479.055 41.2528C480.153 42.086 481.587 41.6854 482.413 40.6679C482.893 40.083 483.206 39.3699 483.262 38.6168C483.278 38.3925 483.046 38.1441 482.813 38.1681C481.451 38.3364 480.088 38.5046 478.718 38.6729C478.526 38.6969 478.333 38.721 478.141 38.745C477.901 38.777 477.692 38.9293 477.692 39.1937C477.692 39.41 477.901 39.6744 478.141 39.6424C479.503 39.4741 480.866 39.3058 482.236 39.1376C482.429 39.1135 482.621 39.0895 482.813 39.0655C482.661 38.9132 482.517 38.769 482.364 38.6168C482.3 39.4901 481.643 40.5477 480.73 40.7801C479.864 41.0044 479.239 40.3394 478.846 39.6424C478.758 39.4901 478.686 39.3299 478.614 39.1696C478.582 39.0975 478.646 39.2658 478.622 39.1776C478.614 39.1616 478.606 39.1376 478.598 39.1216C478.59 39.1055 478.582 39.0815 478.574 39.0655C478.389 38.5287 477.524 38.761 477.708 39.3058Z" fill="#141414"/>
<path d="M490.974 33.1694C490.974 36.0298 488.898 38.3533 486.334 38.3533C483.769 38.3533 481.693 36.0298 481.693 33.1694C481.693 30.3091 483.769 27.9856 486.334 27.9856C488.898 27.9856 490.974 30.3091 490.974 33.1694Z" stroke="#049478" stroke-width="0.813511" stroke-miterlimit="10"/>
<path d="M474.776 37.1514C476.883 37.1514 478.59 35.078 478.59 32.5204C478.59 29.9628 476.883 27.8894 474.776 27.8894C472.669 27.8894 470.961 29.9628 470.961 32.5204C470.961 35.078 472.669 37.1514 474.776 37.1514Z" stroke="#049478" stroke-width="0.813511" stroke-miterlimit="10"/>
<path d="M480.081 32.6406V37.1434L477.725 35.7093L480.081 32.6406Z" fill="#D96980"/>
<path d="M478.477 33.9061C478.477 33.9061 480.344 33.1201 481.698 34.243" stroke="#049478" stroke-width="0.813511" stroke-miterlimit="10"/>
<path d="M504.176 37.7761C504.176 40.6124 501.859 42.9119 498.998 42.9119C496.137 42.9119 493.821 40.6124 493.821 37.7761C493.821 34.9399 496.137 32.6404 498.998 32.6404C501.859 32.6404 504.176 34.9399 504.176 37.7761Z" fill="white"/>
<path d="M496.747 38.4571C496.739 38.345 496.747 38.2328 496.747 38.1206C496.747 38.0726 496.755 38.0165 496.755 37.9684C496.755 37.9363 496.763 37.9123 496.763 37.8803C496.779 37.728 496.739 38.0165 496.763 37.8963C496.787 37.7521 496.811 37.6079 496.851 37.4716C496.867 37.3995 496.891 37.3274 496.915 37.2553C496.931 37.2153 496.939 37.1752 496.955 37.1351C496.963 37.1191 496.971 37.0951 496.979 37.079C497.011 36.9909 496.979 37.0951 496.963 37.1191C497.059 36.9669 497.123 36.7906 497.227 36.6384C497.235 36.6224 497.251 36.6143 497.26 36.5983C497.308 36.5342 497.316 36.5743 497.235 36.6304C497.267 36.6143 497.292 36.5583 497.324 36.5262C497.388 36.4541 497.46 36.382 497.532 36.3179C497.548 36.3019 497.564 36.2939 497.572 36.2859C497.62 36.2378 497.652 36.2618 497.548 36.3019C497.588 36.2859 497.628 36.2458 497.668 36.2218C497.756 36.1657 497.853 36.1096 497.957 36.0615C497.973 36.0535 498.069 36.0134 497.973 36.0535C497.877 36.0936 498.005 36.0375 498.029 36.0375C498.093 36.0134 498.157 35.9974 498.221 35.9734C498.285 35.9574 498.357 35.9413 498.422 35.9253C498.446 35.9173 498.47 35.9173 498.494 35.9093C498.518 35.9013 498.542 35.9013 498.566 35.8933C498.63 35.8852 498.614 35.8852 498.534 35.8933C498.59 35.8612 498.702 35.8772 498.766 35.8692C498.846 35.8612 498.934 35.8612 499.015 35.8612C499.199 35.8612 499.375 35.8692 499.56 35.8933C499.848 35.9253 500.121 35.6208 500.113 35.3404C500.097 35.0199 499.872 34.8196 499.56 34.7876C498.446 34.6754 497.227 34.9158 496.482 35.8211C495.977 36.4381 495.737 37.1992 495.665 37.9844C495.649 38.1366 495.641 38.2889 495.649 38.4411C495.665 38.7295 495.889 39.01 496.202 38.9939C496.482 38.9939 496.771 38.7616 496.747 38.4571Z" fill="#090909"/>
<path d="M425.273 215.068H396.055C392.32 215.068 389.295 218.093 389.295 221.826V233.747V237.917V250.984L396.169 244.675H425.273C429.007 244.675 432.033 241.651 432.033 237.917V221.826C432.033 218.093 429.007 215.068 425.273 215.068Z" fill="white" stroke="black" stroke-width="0.642518" stroke-miterlimit="10"/>
<path d="M403.98 230.407C403.98 232.027 402.664 233.343 401.043 233.343C399.423 233.343 398.106 232.027 398.106 230.407C398.106 228.787 399.423 227.47 401.043 227.47C402.664 227.47 403.98 228.787 403.98 230.407Z" fill="white" stroke="black" stroke-width="0.642518" stroke-miterlimit="10"/>
<path d="M414.201 230.407C414.201 232.027 412.885 233.343 411.264 233.343C409.644 233.343 408.327 232.027 408.327 230.407C408.327 228.787 409.644 227.47 411.264 227.47C412.885 227.47 414.201 228.787 414.201 230.407Z" fill="white" stroke="black" stroke-width="0.642518" stroke-miterlimit="10"/>
<path d="M424.426 230.407C424.426 232.027 423.109 233.343 421.489 233.343C419.868 233.343 418.552 232.027 418.552 230.407C418.552 228.787 419.868 227.47 421.489 227.47C423.109 227.47 424.426 228.787 424.426 230.407Z" fill="white" stroke="black" stroke-width="0.642518" stroke-miterlimit="10"/>
<path d="M433.693 205.45H404.475C400.74 205.45 397.715 208.475 397.715 212.208V224.13V228.3V241.367L404.589 235.058H433.693C437.427 235.058 440.453 232.033 440.453 228.3V212.208C440.453 208.475 437.427 205.45 433.693 205.45Z" fill="white" stroke="black" stroke-width="0.642518" stroke-miterlimit="10"/>
<path d="M412.401 220.789C412.401 222.409 411.085 223.726 409.464 223.726C407.844 223.726 406.527 222.409 406.527 220.789C406.527 219.169 407.844 217.853 409.464 217.853C411.085 217.853 412.401 219.169 412.401 220.789Z" fill="white" stroke="black" stroke-width="0.642518" stroke-miterlimit="10"/>
<path d="M422.622 220.789C422.622 222.409 421.306 223.726 419.685 223.726C418.065 223.726 416.748 222.409 416.748 220.789C416.748 219.169 418.065 217.853 419.685 217.853C421.306 217.853 422.622 219.169 422.622 220.789Z" fill="white" stroke="black" stroke-width="0.642518" stroke-miterlimit="10"/>
<path d="M432.847 220.789C432.847 222.409 431.53 223.726 429.91 223.726C428.289 223.726 426.973 222.409 426.973 220.789C426.973 219.169 428.289 217.853 429.91 217.853C431.53 217.853 432.847 219.169 432.847 220.789Z" fill="white" stroke="black" stroke-width="0.642518" stroke-miterlimit="10"/>
<path d="M185.494 81.13H149.953C145.412 81.13 141.731 84.8099 141.731 89.3492V103.86V108.934V124.83L150.095 117.153H185.503C190.043 117.153 193.724 113.473 193.724 108.934V89.3492C193.716 84.8099 190.035 81.13 185.494 81.13Z" fill="white" stroke="black" stroke-width="0.847287" stroke-miterlimit="10"/>
<path d="M159.581 99.7877C159.581 101.765 157.979 103.359 156.009 103.359C154.031 103.359 152.437 101.757 152.437 99.7877C152.437 97.8184 154.039 96.2162 156.009 96.2162C157.979 96.2162 159.581 97.8184 159.581 99.7877Z" fill="white" stroke="black" stroke-width="0.847287" stroke-miterlimit="10"/>
<path d="M172.015 99.7877C172.015 101.765 170.413 103.359 168.443 103.359C166.465 103.359 164.87 101.757 164.87 99.7877C164.87 97.8184 166.473 96.2162 168.443 96.2162C170.413 96.2162 172.015 97.8184 172.015 99.7877Z" fill="white" stroke="black" stroke-width="0.847287" stroke-miterlimit="10"/>
<path d="M184.455 99.7877C184.455 101.765 182.852 103.359 180.882 103.359C178.904 103.359 177.31 101.757 177.31 99.7877C177.31 97.8184 178.912 96.2162 180.882 96.2162C182.852 96.2162 184.455 97.8184 184.455 99.7877Z" fill="white" stroke="black" stroke-width="0.847287" stroke-miterlimit="10"/>
<path d="M66.4452 288.531C65.2833 282.064 61.63 277.825 57.5454 275.155C50.6221 270.641 41.4348 270.641 34.5234 275.155C30.4389 277.825 26.7855 282.064 25.6236 288.531C23.4915 300.481 34.0084 306.9 35.9847 309.307C35.9847 309.307 37.3143 310.408 37.9611 311.713C38.1169 312.037 38.2965 313.067 38.4882 314.444H46.0464H53.6046C53.8082 313.067 53.9759 312.037 54.1317 311.713C54.7665 310.408 56.1081 309.307 56.1081 309.307C58.0605 306.9 68.5773 300.481 66.4452 288.531Z" fill="#EEDA36" stroke="black" stroke-width="1.21589" stroke-miterlimit="10"/>
<path d="M42.8607 315.725C42.8607 315.725 42.8607 304.397 42.0342 302.781C41.2078 301.164 37.3867 295.5 36.7399 294.315C36.0931 293.117 37.4227 291.74 38.4408 293.5C39.3152 295.009 43.0165 300.17 43.8429 302.29C44.6694 304.397 45.3761 316.3 45.3761 316.3L42.8607 315.725Z" fill="white"/>
<path d="M49.1365 315.725C49.1365 315.725 49.1365 304.397 49.963 302.781C50.7895 301.164 54.6105 295.5 55.2573 294.315C55.9042 293.117 54.5746 291.74 53.5564 293.5C52.682 295.009 48.9808 300.17 48.1543 302.29C47.3278 304.397 46.6211 316.3 46.6211 316.3L49.1365 315.725Z" fill="white"/>
<path d="M54.6257 293.931C53.0925 294.65 50.4812 294.734 48.5527 294.147C48.5408 294.159 48.5168 294.171 48.5048 294.183C46.9117 295.356 44.6958 294.913 43.0667 293.716C41.0424 294.506 38.2515 294.602 37.8323 294.614L37.8203 293.536C39.0421 293.512 40.7909 293.309 42.1564 292.902C41.0305 291.68 40.7909 290.363 41.5455 289.465C42.4918 288.327 43.6896 288.399 44.4442 288.974C45.3546 289.668 45.7858 291.141 44.9353 292.411C44.7437 292.698 44.4802 292.937 44.1687 293.153C45.1869 293.752 46.3967 294.015 47.3669 293.644C47.0315 293.452 46.744 293.213 46.5404 292.949C46.217 292.53 45.7858 291.668 46.6123 290.519C47.1753 289.74 47.9059 289.381 48.6246 289.537C49.3193 289.68 49.8584 290.291 50.0021 291.081C50.1458 291.824 49.9302 292.59 49.4152 293.273C50.9843 293.62 52.9966 293.56 54.2424 292.985L54.6257 293.931ZM47.8341 290.746C47.7023 290.842 47.5825 290.974 47.4627 291.141C47.0435 291.728 47.1992 292.051 47.3669 292.279C47.5825 292.542 47.9299 292.77 48.3611 292.961C48.8642 292.447 49.0918 291.86 48.984 291.321C48.9121 290.95 48.6725 290.65 48.385 290.59C48.2174 290.554 48.0257 290.602 47.8341 290.746ZM43.2584 292.482C43.6177 292.291 43.8932 292.075 44.0609 291.836C44.552 291.093 44.3125 290.255 43.7974 289.86C43.3422 289.525 42.8272 289.632 42.372 290.171C41.9168 290.71 42.4199 291.608 42.9829 292.219C43.0667 292.303 43.1626 292.399 43.2584 292.482Z" fill="white"/>
<path d="M45.998 313.235C41.8895 313.235 38.3799 312.157 37.793 311.834C37.8409 311.918 37.8888 311.99 37.9247 312.073C38.4757 313.199 39.1585 322.599 40.6438 326.228C40.9073 326.875 41.1948 327.33 41.5062 327.533C42.3566 328.084 44.1174 328.671 45.998 328.575C47.8786 328.659 49.6394 328.084 50.4898 327.533C50.8012 327.33 51.0887 326.875 51.3522 326.228C52.8256 322.599 53.5203 313.211 54.0713 312.073C54.1072 311.99 54.1671 311.906 54.203 311.834C53.6161 312.157 50.1065 313.235 45.998 313.235Z" fill="white" stroke="black" stroke-width="1.21589" stroke-miterlimit="10"/>
<path d="M45.9957 317.486C48.3674 317.45 50.9547 317.163 53.3024 316.42C53.4581 315.307 53.6018 314.301 53.7216 313.534C48.7387 315.426 43.2287 315.426 38.2578 313.534C38.3896 314.301 38.5213 315.307 38.677 316.42C41.0367 317.151 43.624 317.438 45.9957 317.486Z" fill="black"/>
<path d="M45.9965 322.276C48.1166 322.24 50.4044 322.001 52.5485 321.426C52.7162 320.492 52.86 319.522 53.0037 318.576C48.464 320.121 43.529 320.121 38.9893 318.576C39.133 319.522 39.2767 320.492 39.4444 321.426C41.5885 322.001 43.8763 322.24 45.9965 322.276Z" fill="black"/>
<path d="M39.9043 323.677C40.1319 324.671 40.3834 325.557 40.6589 326.228C40.7068 326.335 40.7547 326.431 40.7907 326.539C42.5275 326.886 44.3242 327.042 46.0132 327.078C47.7021 327.054 49.4868 326.886 51.2237 326.539C51.2716 326.443 51.3195 326.347 51.3674 326.228C51.6429 325.545 51.8944 324.671 52.122 323.677C48.1213 324.826 43.881 324.826 39.9043 323.677Z" fill="black"/>
<path d="M46.4203 265.732H46.3724C45.1746 265.732 44.1924 264.762 44.1924 263.553V253.338C44.1924 252.141 45.1626 251.159 46.3724 251.159H46.4203C47.6181 251.159 48.6003 252.129 48.6003 253.338V263.553C48.5884 264.762 47.6181 265.732 46.4203 265.732Z" fill="white" stroke="black" stroke-width="1.21589" stroke-miterlimit="10"/>
<path d="M62.0886 268.558L62.0526 268.534C60.9866 267.971 60.5913 266.642 61.1663 265.588L65.9935 256.582C66.5564 255.529 67.886 255.121 68.9401 255.696L68.976 255.72C70.0301 256.283 70.4374 257.612 69.8624 258.666L65.0352 267.671C64.4722 268.737 63.1427 269.132 62.0886 268.558Z" fill="white" stroke="black" stroke-width="1.21589" stroke-miterlimit="10"/>
<path d="M30.7043 268.558L30.7402 268.534C31.8063 267.971 32.2016 266.642 31.6266 265.588L26.7994 256.582C26.2364 255.529 24.9069 255.121 23.8528 255.696L23.8169 255.72C22.7628 256.283 22.3555 257.612 22.9305 258.666L27.7577 267.671C28.3206 268.737 29.6382 269.132 30.7043 268.558Z" fill="white" stroke="black" stroke-width="1.21589" stroke-miterlimit="10"/>
<path d="M19.0909 280.544L19.0789 280.592C18.8274 281.766 17.6775 282.52 16.5036 282.281L6.50183 280.185C5.32797 279.934 4.57335 278.784 4.81291 277.61L4.82489 277.563C5.07643 276.389 6.22633 275.635 7.40019 275.874L17.402 277.97C18.5758 278.209 19.3304 279.371 19.0909 280.544Z" fill="white" stroke="black" stroke-width="1.21589" stroke-miterlimit="10"/>
<path d="M18.5461 296.866L18.5341 296.818C18.1987 295.668 16.989 294.997 15.8271 295.345L6.02894 298.219C4.87904 298.554 4.20826 299.763 4.55563 300.925L4.5676 300.973C4.90299 302.123 6.11279 302.793 7.27467 302.446L17.0728 299.572C18.2227 299.237 18.8815 298.027 18.5461 296.866Z" fill="white" stroke="black" stroke-width="1.21589" stroke-miterlimit="10"/>
<path d="M73.6987 280.544L73.7107 280.592C73.9623 281.766 75.1122 282.52 76.286 282.28L86.2878 280.185C87.4616 279.933 88.2163 278.784 87.9767 277.61L87.9647 277.562C87.7132 276.389 86.5633 275.634 85.3894 275.874L75.3877 277.969C74.2018 278.209 73.4472 279.371 73.6987 280.544Z" fill="white" stroke="black" stroke-width="1.21589" stroke-miterlimit="10"/>
<path d="M74.23 296.866L74.2419 296.818C74.5773 295.668 75.7871 294.998 76.949 295.345L86.7471 298.219C87.897 298.554 88.5678 299.764 88.2204 300.925V300.961C87.8851 302.111 86.6753 302.781 85.5134 302.434L75.7152 299.56C74.5534 299.237 73.8946 298.027 74.23 296.866Z" fill="white" stroke="black" stroke-width="1.21589" stroke-miterlimit="10"/>
</svg>
