<svg width="152" height="100" viewBox="0 0 152 100" fill="none" xmlns="http://www.w3.org/2000/svg">
<path d="M98.3604 26.9369L99.4661 28.0583C100.061 27.455 100.85 27.1225 101.693 27.1225C102.536 27.1225 103.325 27.455 103.92 28.0583L105.025 26.9369C104.133 26.032 102.951 25.537 101.693 25.537C100.435 25.5331 99.2526 26.032 98.3604 26.9369Z" stroke="#049478" stroke-width="0.560042" stroke-miterlimit="10"/>
<path d="M96.5259 25.0734L97.6316 26.1948C98.7183 25.0927 100.16 24.4895 101.696 24.4895C103.233 24.4895 104.674 25.0966 105.761 26.1948L106.867 25.0734C105.486 23.6735 103.648 22.9001 101.696 22.9001C99.7402 22.9001 97.9062 23.6735 96.5259 25.0734Z" stroke="#049478" stroke-width="0.560042" stroke-miterlimit="10"/>
<path d="M101.697 20.2665C99.051 20.2665 96.5611 21.3106 94.689 23.2093L95.7947 24.3307C97.3695 22.7336 99.4666 21.8519 101.697 21.8519C103.928 21.8519 106.021 22.7336 107.6 24.3307L108.705 23.2093C106.833 21.3106 104.343 20.2665 101.697 20.2665Z" stroke="#049478" stroke-width="0.560042" stroke-miterlimit="10"/>
<path d="M101.7 30.7722C102.439 30.7722 103.038 30.1646 103.038 29.4149C103.038 28.6653 102.439 28.0576 101.7 28.0576C100.961 28.0576 100.361 28.6653 100.361 29.4149C100.361 30.1646 100.961 30.7722 101.7 30.7722Z" stroke="#049478" stroke-width="0.560042" stroke-miterlimit="10"/>
<path d="M28.8403 75.1008V79.7225" stroke="#DB7294" stroke-width="0.557779" stroke-miterlimit="10" stroke-linecap="round" stroke-linejoin="round"/>
<path d="M26.5625 77.4113H31.1145" stroke="#DB7294" stroke-width="0.557779" stroke-miterlimit="10" stroke-linecap="round" stroke-linejoin="round"/>
<path d="M56.54 26.7192V31.3409" stroke="#EEDA36" stroke-width="0.557779" stroke-miterlimit="10" stroke-linecap="round" stroke-linejoin="round"/>
<path d="M54.2632 29.0297H58.8202" stroke="#EEDA36" stroke-width="0.557779" stroke-miterlimit="10" stroke-linecap="round" stroke-linejoin="round"/>
<path d="M148.193 85.6582V90.2747" stroke="#EEDA36" stroke-width="0.557779" stroke-miterlimit="10" stroke-linecap="round" stroke-linejoin="round"/>
<path d="M145.916 87.9636H150.467" stroke="#EEDA36" stroke-width="0.557779" stroke-miterlimit="10" stroke-linecap="round" stroke-linejoin="round"/>
<path d="M34.5431 101.97C35.8772 97.5053 33.3893 92.7908 28.9862 91.4398C24.5831 90.0888 19.9323 92.613 18.5982 97.0777C17.2641 101.542 19.752 106.257 24.1551 107.608C28.5581 108.959 33.209 106.435 34.5431 101.97Z" fill="#E4B0C8"/>
<path d="M31.5768 95.954H21.8096V103.395H31.5768V95.954Z" stroke="white" stroke-width="0.743705" stroke-miterlimit="10"/>
<path d="M21.8096 95.954L26.6907 100.529L31.5768 95.954" stroke="white" stroke-width="0.743705" stroke-miterlimit="10"/>
<path d="M67.372 10.1029L68.7999 12.614L70.2328 15.1302H67.372H64.5112L65.9391 12.614L67.372 10.1029Z" fill="#D96980"/>
<path d="M99.8788 96.6469C99.8788 97.9563 98.8306 99.0193 97.5395 99.0193C96.2483 99.0193 95.2002 97.9563 95.2002 96.6469C95.2002 95.3374 96.2483 94.2744 97.5395 94.2744C98.8306 94.2693 99.8788 95.3323 99.8788 96.6469Z" stroke="#D96980" stroke-width="0.743705" stroke-miterlimit="10"/>
<path d="M118.398 32.7169C118.398 33.8928 117.456 34.8428 116.301 34.8428C115.142 34.8428 114.205 33.8877 114.205 32.7169C114.205 31.5409 115.147 30.5909 116.301 30.5909C117.456 30.5909 118.398 31.5409 118.398 32.7169Z" fill="#D96980"/>
<path d="M122.849 75.9893C122.849 76.6928 122.287 77.2577 121.598 77.2577C120.905 77.2577 120.348 76.6877 120.348 75.9893C120.348 75.291 120.91 74.7209 121.598 74.7209C122.292 74.7209 122.849 75.291 122.849 75.9893Z" fill="#E4B0C8"/>
<path d="M10.356 66.7927C11.9751 66.7927 13.2877 65.4615 13.2877 63.8194C13.2877 62.1774 11.9751 60.8462 10.356 60.8462C8.73688 60.8462 7.42432 62.1774 7.42432 63.8194C7.42432 65.4615 8.73688 66.7927 10.356 66.7927Z" stroke="#049478" stroke-width="0.743705" stroke-miterlimit="10"/>
<path d="M136.152 71.7688C137.899 87.9849 125.874 102.619 109.286 104.458C92.6983 106.296 77.8323 94.6449 76.0854 78.4339" stroke="#C1C0FF" stroke-width="0.743705" stroke-miterlimit="10" stroke-dasharray="2.97 2.97"/>
<path d="M108.312 89.2469H54.3011C52.1295 89.2469 50.3662 87.4629 50.3662 85.2564V50.0033C50.3662 47.8011 52.1253 46.0128 54.3011 46.0128H108.312C110.484 46.0128 112.247 47.7968 112.247 50.0033V85.2564C112.247 87.4586 110.484 89.2469 108.312 89.2469Z" fill="#D0EEDE"/>
<path d="M104.217 81.4833H58.3953C56.2238 81.4833 54.4604 79.6993 54.4604 77.4928V52.5169C54.4604 50.3146 56.2196 48.5264 58.3953 48.5264H104.213C106.384 48.5264 108.148 50.3104 108.148 52.5169V77.4928C108.148 79.695 106.388 81.4833 104.217 81.4833Z" fill="white"/>
<path d="M70.5079 63.5882C70.5079 63.5882 67.5957 72.8966 73.5464 74.9537C79.5014 77.0109 80.1663 75.308 81.492 78.5217C82.8134 81.7354 88.1161 80.3484 88.6211 75.4018C89.1261 70.4553 85.5279 70.8394 83.6551 70.5834C81.7824 70.3273 80.5324 66.8361 80.5493 65.018C80.5703 63.2084 71.1813 59.7983 70.5079 63.5882Z" fill="black"/>
<path d="M77.1083 72.3203C77.1083 72.3203 83.4547 72.713 90.003 78.9527C96.5513 85.1924 96.3788 101.295 96.3788 101.295L76.8306 100.787L77.1083 72.3203Z" fill="white" stroke="black" stroke-width="0.618134" stroke-miterlimit="10"/>
<path d="M83.8164 77.6508C88.1973 80.9712 97.1108 100.71 94.2827 100.779C91.4505 100.847 57.6651 100.574 56.6046 99.5068C55.544 98.4441 60.1439 89.0333 60.1439 89.0333C60.1439 89.0333 67.2519 74.2194 78.257 74.1297C81.9226 74.0999 79.1366 74.1041 83.8164 77.6508Z" fill="white"/>
<path d="M65.8628 89.7934C65.8628 89.7934 62.7654 98.5939 63.4808 99.5883C64.1962 100.583 86.9387 100.843 88.8451 100.779C90.7515 100.715 87.5236 86.84 85.9076 82.8495" stroke="#1C191B" stroke-width="0.618134" stroke-miterlimit="10"/>
<path d="M77.7667 94.398C77.7667 94.398 80.3171 92.6652 86.9117 94.3127C86.9117 94.3127 88.1911 94.8974 87.2105 95.162C86.2299 95.4266 83.7806 95.0254 83.7806 95.0254C83.7806 95.0254 87.5766 95.3754 87.665 96.0455C87.7492 96.7156 84.0836 96.0626 84.0836 96.0626C84.0836 96.0626 88.0353 96.6943 87.9848 97.3729C87.9386 98.0515 85.7417 97.2961 83.6081 97.4497C81.4744 97.6034 77.5858 99.1911 76.984 98.7515C76.3822 98.3161 75.0691 95.4181 77.7667 94.398Z" fill="white" stroke="#1C191B" stroke-width="0.618134" stroke-miterlimit="10"/>
<path d="M75.6277 72.3246C71.6886 72.3587 67.3707 73.6007 63.1875 77.062C57.4767 81.7823 47.7931 96.6219 52.0225 104.283C56.252 111.944 65.9904 108.956 69.3613 107.415C72.7323 105.875 79.3311 100.745 80.0508 98.6449C80.8925 96.1865 80.5263 94.4538 77.4836 93.6813C74.4451 92.9088 63.2801 94.1166 61.0917 95.5592" fill="white"/>
<path d="M75.6277 72.3246C71.6886 72.3587 67.3707 73.6007 63.1875 77.062C57.4767 81.7823 47.7931 96.6219 52.0225 104.283C56.252 111.944 65.9904 108.956 69.3613 107.415C72.7323 105.875 79.3311 100.745 80.0508 98.6449C80.8925 96.1865 80.5263 94.4538 77.4836 93.6813C74.4451 92.9088 63.2801 94.1166 61.0917 95.5592" stroke="black" stroke-width="0.618134" stroke-miterlimit="10"/>
<path d="M80.0526 98.6454C80.8775 96.2424 80.5366 94.5352 77.6833 93.7413C77.5318 94.5139 77.4939 95.4358 77.6033 96.4174C77.7885 98.0564 78.3398 99.4435 79.0174 100.182C79.5392 99.5844 79.9096 99.0551 80.0526 98.6454Z" fill="#FFBA7B" stroke="black" stroke-width="0.618134" stroke-miterlimit="10"/>
<path d="M70.8988 84.2321C70.8988 84.2321 67.5699 81.7609 68.8535 80.6213C70.1371 79.4817 71.2397 81.8334 71.2397 81.8334C71.2397 81.8334 72.0141 79.7719 73.1125 80.4591C74.2151 81.1463 70.8988 84.2321 70.8988 84.2321Z" fill="#FFBA7B" stroke="#1C191B" stroke-width="0.618134" stroke-miterlimit="10"/>
<path d="M79.2045 73.6857C79.2045 74.8509 77.6053 75.7984 75.6316 75.7984C73.6578 75.7984 72.0586 74.8552 72.0586 73.6857C72.0586 72.5205 73.6578 71.573 75.6316 71.573C77.6053 71.5773 79.2045 72.5205 79.2045 73.6857Z" fill="#FFBA7B" stroke="#1C191B" stroke-width="0.618134" stroke-miterlimit="10"/>
<path d="M68.979 63.5879C68.979 65.0604 70.1658 66.2554 71.6345 66.2554C73.1033 66.2554 74.2901 65.0604 74.2901 63.5879C74.2901 62.1154 73.1033 60.9203 71.6345 60.9203C70.1658 60.9203 68.979 62.1154 68.979 63.5879Z" fill="white" stroke="black" stroke-width="0.618134" stroke-miterlimit="10"/>
<path d="M80.0271 55.7864H76.8876C74.8002 55.7864 73.0916 57.7582 73.0916 60.1695V65.1075C73.0916 65.2484 73.1 65.3849 73.1084 65.5215C73.0747 65.6666 73.0537 65.816 73.0537 65.9739V68.9785V69.145V72.1496C73.0537 73.2379 73.9333 74.1342 75.0106 74.1342H76.2563C77.3295 74.1342 78.2133 73.2422 78.2133 72.1496V69.4907H80.0271C82.1145 69.4907 83.8231 67.5189 83.8231 65.1075V60.1695C83.8231 57.7582 82.1145 55.7864 80.0271 55.7864Z" fill="white" stroke="black" stroke-width="0.618134" stroke-miterlimit="10"/>
<path d="M72.8264 62.3883C72.8264 62.3883 75.907 61.3512 76.837 59.3367C77.7713 57.3223 77.5399 56.8869 77.5399 56.8869C77.5399 56.8869 79.2737 59.2983 82.0176 59.8873C84.2818 60.3781 84.1892 60.0367 84.4122 59.5032C84.6185 59.0124 84.7573 55.6108 81.3148 53.5196C77.8765 51.4283 74.1815 51.6331 71.6354 54.2408C69.0851 56.8485 69.3965 60.9543 70.255 61.9828C71.1094 63.0114 72.2414 63.5833 72.8264 62.3883Z" fill="black"/>
<path d="M74.624 50.3191C75.0142 48.6445 73.9919 46.9667 72.3406 46.5715C70.6892 46.1764 69.0343 47.2136 68.644 48.8882C68.2538 50.5628 69.2762 52.2406 70.9275 52.6357C72.5788 53.0308 74.2338 51.9936 74.624 50.3191Z" fill="black"/>
<path d="M69.1353 63.5885C69.1353 64.9756 70.2547 66.1024 71.6351 66.1024C73.0154 66.1024 74.1349 64.9756 74.1349 63.5885C74.1349 62.2014 73.0154 61.0746 71.6351 61.0746C70.2547 61.0746 69.1353 62.2014 69.1353 63.5885Z" fill="white"/>
<path d="M72.986 63.9214C72.986 63.9214 73.0954 62.2142 71.3657 62.402" stroke="#020202" stroke-width="0.618134" stroke-miterlimit="10"/>
<path d="M78.2475 62.4993C78.638 62.4993 78.9546 62.1782 78.9546 61.7822C78.9546 61.3862 78.638 61.0652 78.2475 61.0652C77.8571 61.0652 77.5405 61.3862 77.5405 61.7822C77.5405 62.1782 77.8571 62.4993 78.2475 62.4993Z" fill="black"/>
<path d="M82.1768 61.6759C82.1768 62.0131 82.4461 62.2905 82.7828 62.2905C83.1152 62.2905 83.3888 62.0173 83.3888 61.6759C83.3888 61.3387 83.1194 61.0613 82.7828 61.0613C82.4461 61.0655 82.1768 61.3387 82.1768 61.6759Z" fill="black"/>
<path d="M81.494 64.6119C81.494 64.6119 81.1363 65.6618 80.3872 65.7344C79.6339 65.8069 79.0447 64.9618 79.0068 64.3003" stroke="#0C0C0C" stroke-width="0.618134" stroke-miterlimit="10"/>
<path d="M75.0747 64.4199C75.0747 65.4059 75.8617 66.204 76.8338 66.204C77.806 66.204 78.593 65.4059 78.593 64.4199C78.593 63.434 77.806 62.6359 76.8338 62.6359C75.8617 62.6359 75.0747 63.434 75.0747 64.4199Z" fill="#E4B0C8"/>
<path d="M83.3505 63.2128C83.4557 63.2128 83.5609 63.2256 83.6619 63.2512V65.1035C83.6619 65.381 83.6535 65.6456 83.5946 65.9059C83.5231 65.9187 83.4263 65.9273 83.3505 65.9273C82.6098 65.9273 82.0122 65.3212 82.0122 64.57C82.008 63.8188 82.6098 63.2128 83.3505 63.2128Z" fill="#E4B0C8"/>
<path d="M80.6968 61.0652L80.5537 63.5065L81.7026 62.798L80.6968 61.0652Z" fill="#DB7294"/>
<path d="M103.271 55.7863H90.6161C89.3578 55.7863 88.3394 54.7534 88.3394 53.4773C88.3394 52.2011 89.3578 51.1682 90.6161 51.1682H103.271C104.529 51.1682 105.548 52.2011 105.548 53.4773C105.548 54.7534 104.529 55.7863 103.271 55.7863Z" stroke="black" stroke-width="0.618134" stroke-miterlimit="10"/>
<path d="M104.217 81.4833H58.3953C56.2238 81.4833 54.4604 79.6993 54.4604 77.4928V52.5169C54.4604 50.3146 56.2196 48.5264 58.3953 48.5264H104.213C106.384 48.5264 108.148 50.3104 108.148 52.5169V77.4928C108.148 79.695 106.388 81.4833 104.217 81.4833Z" stroke="black" stroke-width="0.618134" stroke-miterlimit="10"/>
<path d="M82.8178 85.2479C82.8094 85.8455 82.4475 86.4003 81.8878 86.6052C81.3154 86.8143 80.6673 86.6351 80.2843 86.1571C79.914 85.6918 79.8719 85.0217 80.1707 84.5096C80.4695 84.0016 81.0713 83.72 81.6479 83.8309C82.3254 83.9504 82.8094 84.5522 82.8178 85.2479C82.822 85.5894 83.3481 85.5937 83.3439 85.2479C83.3312 84.4199 82.8304 83.6858 82.0687 83.3913C81.3112 83.1011 80.4106 83.3444 79.8972 83.9803C79.3795 84.6205 79.2954 85.5424 79.7162 86.2595C80.137 86.9765 80.9619 87.3351 81.7615 87.1899C82.6747 87.0235 83.327 86.1784 83.3397 85.2479C83.3481 84.9022 82.822 84.9022 82.8178 85.2479Z" fill="black"/>
<path d="M82.4867 29.4572H70.1359C68.5573 29.4572 67.2783 30.7542 67.2783 32.3551V37.4673V39.2555V44.8588L70.1841 42.1535H82.4867C84.0653 42.1535 85.3443 40.8564 85.3443 39.2555V32.3551C85.3443 30.7542 84.0653 29.4572 82.4867 29.4572Z" fill="white" stroke="black" stroke-width="0.392998" stroke-miterlimit="10"/>
<path d="M73.4859 36.035C73.4859 36.7297 72.9294 37.2941 72.2444 37.2941C71.5595 37.2941 71.0029 36.7297 71.0029 36.035C71.0029 35.3403 71.5595 34.7759 72.2444 34.7759C72.9294 34.7759 73.4859 35.3403 73.4859 36.035Z" fill="white" stroke="black" stroke-width="0.392998" stroke-miterlimit="10"/>
<path d="M77.8063 36.035C77.8063 36.7297 77.2497 37.2941 76.5647 37.2941C75.8798 37.2941 75.3232 36.7297 75.3232 36.035C75.3232 35.3403 75.8798 34.7759 76.5647 34.7759C77.2497 34.7759 77.8063 35.3403 77.8063 36.035Z" fill="white" stroke="black" stroke-width="0.392998" stroke-miterlimit="10"/>
<path d="M82.129 36.035C82.129 36.7297 81.5725 37.2941 80.8875 37.2941C80.2025 37.2941 79.646 36.7297 79.646 36.035C79.646 35.3403 80.2025 34.7759 80.8875 34.7759C81.5725 34.7759 82.129 35.3403 82.129 36.035Z" fill="white" stroke="black" stroke-width="0.392998" stroke-miterlimit="10"/>
<path d="M86.0458 25.3329H73.695C72.1164 25.3329 70.8374 26.6299 70.8374 28.2309V33.343V35.1312V40.7345L73.7432 38.0292H86.0458C87.6244 38.0292 88.9034 36.7322 88.9034 35.1312V28.2309C88.9034 26.6299 87.6244 25.3329 86.0458 25.3329Z" fill="white" stroke="black" stroke-width="0.392998" stroke-miterlimit="10"/>
<path d="M77.046 31.911C77.046 32.6056 76.4894 33.1701 75.8045 33.1701C75.1195 33.1701 74.563 32.6056 74.563 31.911C74.563 31.2163 75.1195 30.6519 75.8045 30.6519C76.4894 30.6519 77.046 31.2163 77.046 31.911Z" fill="white" stroke="black" stroke-width="0.392998" stroke-miterlimit="10"/>
<path d="M81.3663 31.911C81.3663 32.6056 80.8098 33.1701 80.1248 33.1701C79.4398 33.1701 78.8833 32.6056 78.8833 31.911C78.8833 31.2163 79.4398 30.6519 80.1248 30.6519C80.8098 30.6519 81.3663 31.2163 81.3663 31.911Z" fill="white" stroke="black" stroke-width="0.392998" stroke-miterlimit="10"/>
<path d="M85.6881 31.911C85.6881 32.6056 85.1315 33.1701 84.4466 33.1701C83.7616 33.1701 83.2051 32.6056 83.2051 31.911C83.2051 31.2163 83.7616 30.6519 84.4466 30.6519C85.1315 30.6519 85.6881 31.2163 85.6881 31.911Z" fill="white" stroke="black" stroke-width="0.392998" stroke-miterlimit="10"/>
<path d="M140.597 30.4001H125.574C123.654 30.4001 122.098 31.9782 122.098 33.9247V40.1473V42.3228V49.1394L125.634 45.8474H140.601C142.52 45.8474 144.076 44.2694 144.076 42.3228V33.9247C144.073 31.9782 142.517 30.4001 140.597 30.4001Z" fill="white" stroke="black" stroke-width="0.518246" stroke-miterlimit="10"/>
<path d="M129.644 38.4012C129.644 39.2493 128.966 39.9327 128.134 39.9327C127.297 39.9327 126.624 39.2457 126.624 38.4012C126.624 37.5567 127.301 36.8696 128.134 36.8696C128.966 36.8696 129.644 37.5567 129.644 38.4012Z" fill="white" stroke="black" stroke-width="0.518246" stroke-miterlimit="10"/>
<path d="M134.9 38.4012C134.9 39.2493 134.222 39.9327 133.39 39.9327C132.553 39.9327 131.879 39.2457 131.879 38.4012C131.879 37.5567 132.557 36.8696 133.39 36.8696C134.222 36.8696 134.9 37.5567 134.9 38.4012Z" fill="white" stroke="black" stroke-width="0.518246" stroke-miterlimit="10"/>
<path d="M140.157 38.4012C140.157 39.2493 139.48 39.9327 138.647 39.9327C137.811 39.9327 137.137 39.2457 137.137 38.4012C137.137 37.5567 137.815 36.8696 138.647 36.8696C139.48 36.8696 140.157 37.5567 140.157 38.4012Z" fill="white" stroke="black" stroke-width="0.518246" stroke-miterlimit="10"/>
<path d="M27.665 41.1567C27.1738 38.3839 25.6295 36.5661 23.9029 35.421C20.9763 33.4851 17.0927 33.4851 14.1711 35.421C12.4445 36.5661 10.9002 38.3839 10.409 41.1567C9.50775 46.2814 13.9534 49.0337 14.7888 50.0658C14.7888 50.0658 15.3509 50.5382 15.6243 51.098C15.6901 51.2366 15.7661 51.6782 15.8471 52.2687H19.0421H22.2371C22.3231 51.6782 22.394 51.2366 22.4598 51.098C22.7282 50.5382 23.2953 50.0658 23.2953 50.0658C24.1206 49.0337 28.5663 46.2814 27.665 41.1567Z" fill="#EEDA36" stroke="black" stroke-width="0.743705" stroke-miterlimit="10"/>
<path d="M17.6956 52.8183C17.6956 52.8183 17.6956 47.9607 17.3462 47.2674C16.9969 46.5742 15.3817 44.1454 15.1082 43.637C14.8348 43.1236 15.3968 42.533 15.8272 43.2879C16.1969 43.9349 17.7614 46.148 18.1108 47.0569C18.4602 47.9607 18.7589 53.0648 18.7589 53.0648L17.6956 52.8183Z" fill="white"/>
<path d="M20.348 52.8183C20.348 52.8183 20.348 47.9607 20.6973 47.2674C21.0467 46.5742 22.6619 44.1454 22.9354 43.637C23.2088 43.1236 22.6467 42.533 22.2164 43.2879C21.8467 43.9349 20.2822 46.148 19.9328 47.0569C19.5834 47.9607 19.2847 53.0648 19.2847 53.0648L20.348 52.8183Z" fill="white"/>
<path d="M22.6688 43.4729C22.0207 43.781 20.9169 43.8169 20.1017 43.5653C20.0967 43.5704 20.0865 43.5756 20.0815 43.5807C19.408 44.0839 18.4713 43.8939 17.7827 43.3804C16.927 43.7193 15.7472 43.7604 15.57 43.7656L15.5649 43.3034C16.0814 43.2931 16.8207 43.2058 17.3979 43.0312C16.9219 42.5075 16.8207 41.9426 17.1396 41.5574C17.5397 41.0696 18.046 41.1004 18.365 41.3469C18.7498 41.6447 18.9321 42.2764 18.5726 42.8207C18.4916 42.9439 18.3802 43.0466 18.2485 43.1391C18.6789 43.3958 19.1903 43.5088 19.6004 43.3496C19.4587 43.2675 19.3371 43.1647 19.2511 43.0518C19.1144 42.872 18.9321 42.5023 19.2815 42.0093C19.5194 41.6756 19.8283 41.5215 20.1321 41.5883C20.4258 41.6499 20.6536 41.9118 20.7144 42.2507C20.7751 42.5691 20.684 42.8977 20.4663 43.1904C21.1296 43.3393 21.9802 43.3137 22.5068 43.0672L22.6688 43.4729ZM19.7979 42.1069C19.7422 42.148 19.6916 42.2045 19.641 42.2764C19.4637 42.528 19.5296 42.6666 19.6004 42.7642C19.6916 42.8772 19.8384 42.9748 20.0207 43.0569C20.2334 42.8361 20.3296 42.5845 20.284 42.3534C20.2536 42.1942 20.1524 42.0658 20.0308 42.0401C19.9599 42.0247 19.8789 42.0453 19.7979 42.1069ZM17.8637 42.8515C18.0156 42.7693 18.1321 42.6769 18.203 42.5742C18.4106 42.2558 18.3093 41.8964 18.0916 41.7269C17.8992 41.5831 17.6814 41.6293 17.489 41.8604C17.2966 42.0915 17.5093 42.4766 17.7473 42.7385C17.7827 42.7745 17.8232 42.8156 17.8637 42.8515Z" fill="white"/>
<path d="M19.0216 51.7506C17.2849 51.7506 15.8013 51.2884 15.5532 51.1498C15.5735 51.1857 15.5937 51.2165 15.6089 51.2525C15.8418 51.7352 16.1304 55.7663 16.7583 57.3222C16.8697 57.5995 16.9912 57.7947 17.1229 57.882C17.4824 58.1182 18.2267 58.3698 19.0216 58.3287C19.8166 58.3647 20.5609 58.1182 20.9204 57.882C21.052 57.7947 21.1736 57.5995 21.285 57.3222C21.9077 55.7663 22.2014 51.7403 22.4343 51.2525C22.4495 51.2165 22.4748 51.1806 22.49 51.1498C22.2419 51.2884 20.7584 51.7506 19.0216 51.7506Z" fill="white" stroke="black" stroke-width="0.743705" stroke-miterlimit="10"/>
<path d="M19.0204 53.5735C20.023 53.5581 21.1167 53.4349 22.1091 53.1165C22.1749 52.6389 22.2357 52.2076 22.2863 51.8789C20.18 52.6903 17.8508 52.6903 15.7495 51.8789C15.8052 52.2076 15.8609 52.6389 15.9267 53.1165C16.9242 53.4297 18.0179 53.553 19.0204 53.5735Z" fill="black"/>
<path d="M19.0207 55.6274C19.9169 55.612 20.884 55.5093 21.7903 55.2628C21.8612 54.8623 21.922 54.4463 21.9827 54.0406C20.0637 54.7031 17.9776 54.7031 16.0586 54.0406C16.1194 54.4463 16.1801 54.8623 16.251 55.2628C17.1573 55.5093 18.1244 55.612 19.0207 55.6274Z" fill="black"/>
<path d="M16.4458 56.2283C16.542 56.6545 16.6483 57.0345 16.7648 57.3221C16.785 57.3683 16.8053 57.4094 16.8205 57.4556C17.5547 57.6045 18.3142 57.6712 19.0281 57.6867C19.7421 57.6764 20.4965 57.6045 21.2307 57.4556C21.2509 57.4145 21.2712 57.3734 21.2914 57.3221C21.4079 57.0294 21.5142 56.6545 21.6104 56.2283C19.9193 56.7212 18.1268 56.7212 16.4458 56.2283Z" fill="black"/>
<path d="M19.2001 31.3803H19.1798C18.6735 31.3803 18.2583 30.9644 18.2583 30.4457V26.0655C18.2583 25.5519 18.6684 25.1309 19.1798 25.1309H19.2001C19.7064 25.1309 20.1216 25.5468 20.1216 26.0655V30.4457C20.1166 30.9644 19.7064 31.3803 19.2001 31.3803Z" fill="white" stroke="black" stroke-width="0.743705" stroke-miterlimit="10"/>
<path d="M25.8232 32.592L25.808 32.5817C25.3574 32.3404 25.1903 31.7704 25.4333 31.3185L27.4739 27.4568C27.7119 27.005 28.2739 26.8304 28.7195 27.0768L28.7347 27.0871C29.1802 27.3285 29.3524 27.8985 29.1093 28.3504L27.0688 32.212C26.8308 32.669 26.2688 32.8385 25.8232 32.592Z" fill="white" stroke="black" stroke-width="0.743705" stroke-miterlimit="10"/>
<path d="M12.5563 32.592L12.5715 32.5817C13.0222 32.3404 13.1893 31.7704 12.9462 31.3185L10.9057 27.4568C10.6677 27.005 10.1057 26.8304 9.6601 27.0768L9.64491 27.0871C9.19933 27.3285 9.02718 27.8985 9.27022 28.3504L11.3108 32.212C11.5487 32.669 12.1057 32.8385 12.5563 32.592Z" fill="white" stroke="black" stroke-width="0.743705" stroke-miterlimit="10"/>
<path d="M7.64754 37.7323L7.64248 37.7528C7.53615 38.2561 7.05007 38.5796 6.55386 38.4769L2.32595 37.5782C1.82974 37.4704 1.51074 36.9774 1.61201 36.4742L1.61708 36.4536C1.72341 35.9504 2.20949 35.6269 2.7057 35.7296L6.93361 36.6282C7.42982 36.7309 7.74881 37.229 7.64754 37.7323Z" fill="white" stroke="black" stroke-width="0.743705" stroke-miterlimit="10"/>
<path d="M7.41716 44.7308L7.41209 44.7103C7.27032 44.2173 6.75892 43.9297 6.26777 44.0786L2.12594 45.3111C1.63985 45.4549 1.35631 45.9735 1.50314 46.4716L1.50821 46.4922C1.64998 46.9851 2.16138 47.2727 2.65253 47.1238L6.79436 45.8914C7.28044 45.7476 7.55893 45.2289 7.41716 44.7308Z" fill="white" stroke="black" stroke-width="0.743705" stroke-miterlimit="10"/>
<path d="M30.7309 37.7319L30.736 37.7525C30.8423 38.2557 31.3284 38.5792 31.8246 38.4765L36.0525 37.5779C36.5487 37.47 36.8677 36.9771 36.7664 36.4738L36.7614 36.4533C36.655 35.95 36.1689 35.6265 35.6727 35.7292L31.4448 36.6279C30.9436 36.7306 30.6246 37.2287 30.7309 37.7319Z" fill="white" stroke="black" stroke-width="0.743705" stroke-miterlimit="10"/>
<path d="M30.9559 44.7312L30.9609 44.7106C31.1027 44.2177 31.6141 43.9301 32.1053 44.079L36.2471 45.3115C36.7332 45.4552 37.0167 45.9739 36.8699 46.472V46.4874C36.7281 46.9804 36.2167 47.2679 35.7256 47.119L31.5837 45.8866C31.0926 45.7479 30.8141 45.2293 30.9559 44.7312Z" fill="white" stroke="black" stroke-width="0.743705" stroke-miterlimit="10"/>
</svg>
