<svg width="282" height="114" viewBox="0 0 282 114" fill="none" xmlns="http://www.w3.org/2000/svg">
<path d="M164.63 98.833L165.938 100.141C166.641 99.4372 167.575 99.0495 168.572 99.0495C169.568 99.0495 170.502 99.4372 171.206 100.141L172.513 98.833C171.458 97.778 170.06 97.2008 168.572 97.2008C167.083 97.1963 165.685 97.778 164.63 98.833Z" stroke="#049478" stroke-width="0.45781" stroke-miterlimit="10"/>
<path d="M162.46 96.6601L163.768 97.9677C165.053 96.6826 166.758 95.9792 168.576 95.9792C170.393 95.9792 172.098 96.6871 173.383 97.9677L174.691 96.6601C173.059 95.0279 170.885 94.1261 168.576 94.1261C166.262 94.1261 164.093 95.0279 162.46 96.6601Z" stroke="#049478" stroke-width="0.45781" stroke-miterlimit="10"/>
<path d="M168.577 91.0553C165.447 91.0553 162.502 92.2727 160.287 94.4866L161.595 95.7941C163.458 93.932 165.938 92.9039 168.577 92.9039C171.215 92.9039 173.691 93.932 175.558 95.7941L176.866 94.4866C174.652 92.2727 171.707 91.0553 168.577 91.0553Z" stroke="#049478" stroke-width="0.45781" stroke-miterlimit="10"/>
<path d="M168.58 103.305C169.454 103.305 170.163 102.597 170.163 101.723C170.163 100.848 169.454 100.14 168.58 100.14C167.706 100.14 166.997 100.848 166.997 101.723C166.997 102.597 167.706 103.305 168.58 103.305Z" stroke="#049478" stroke-width="0.45781" stroke-miterlimit="10"/>
<path d="M150.924 56.6022V61.985" stroke="#DB7294" stroke-width="0.45596" stroke-miterlimit="10" stroke-linecap="round" stroke-linejoin="round"/>
<path d="M148.236 59.2971H153.621" stroke="#DB7294" stroke-width="0.45596" stroke-miterlimit="10" stroke-linecap="round" stroke-linejoin="round"/>
<path d="M40.1523 35.6832V41.066" stroke="#049478" stroke-width="0.45596" stroke-miterlimit="10" stroke-linecap="round" stroke-linejoin="round"/>
<path d="M37.458 38.3715H42.8422" stroke="#049478" stroke-width="0.45596" stroke-miterlimit="10" stroke-linecap="round" stroke-linejoin="round"/>
<path d="M126.514 60.2007C127.536 60.2007 128.364 59.3723 128.364 58.3505C128.364 57.3287 127.536 56.5004 126.514 56.5004C125.492 56.5004 124.663 57.3287 124.663 58.3505C124.663 59.3723 125.492 60.2007 126.514 60.2007Z" stroke="#EEDA36" stroke-width="0.45596" stroke-miterlimit="10" stroke-linecap="round" stroke-linejoin="round"/>
<path d="M141.408 48.8126C144.868 48.8126 147.673 46.0087 147.673 42.5499C147.673 39.0911 144.868 36.2872 141.408 36.2872C137.948 36.2872 135.144 39.0911 135.144 42.5499C135.144 46.0087 137.948 48.8126 141.408 48.8126Z" fill="#E4B0C8"/>
<path d="M145.168 39.9033H137.825V45.4179H145.168V39.9033Z" stroke="white" stroke-width="0.607947" stroke-miterlimit="10"/>
<path d="M137.825 39.9033L141.497 43.2983L145.168 39.9033" stroke="white" stroke-width="0.607947" stroke-miterlimit="10"/>
<path d="M80.6895 108.057L82.3784 110.985L84.0733 113.919H80.6895H77.3057L78.9946 110.985L80.6895 108.057Z" fill="#D96980"/>
<path d="M11.1877 35.8082L9.84016 40.7659L8.49861 45.7236L4.87522 42.0772L1.25781 38.4368L6.22276 37.1195L11.1877 35.8082Z" stroke="#D96980" stroke-width="0.607947" stroke-miterlimit="10"/>
<path d="M218.422 29.2646C218.422 31.4201 216.673 33.1685 214.517 33.1685C212.361 33.1685 210.612 31.4201 210.612 29.2646C210.612 27.1091 212.361 25.3607 214.517 25.3607C216.673 25.3607 218.422 27.1031 218.422 29.2646Z" stroke="#D96980" stroke-width="0.607947" stroke-miterlimit="10"/>
<path d="M17.513 69.6965C17.513 69.6965 16.8542 74.2469 13.7638 74.7199C10.6735 75.1929 7.84062 74.9893 9.57146 82.8147" stroke="#EEDA36" stroke-width="0.607947" stroke-miterlimit="10"/>
<path d="M168.867 30.7668C168.867 30.7668 173.838 30.2818 175.138 33.4193C176.437 36.5568 176.958 39.5924 184.762 35.7365" stroke="#EEDA36" stroke-width="0.607947" stroke-miterlimit="10"/>
<path d="M192.856 101.651C192.856 102.89 191.85 103.896 190.61 103.896C189.37 103.896 188.364 102.89 188.364 101.651C188.364 100.411 189.37 99.4053 190.61 99.4053C191.856 99.4113 192.856 100.417 192.856 101.651Z" fill="#EEDA36"/>
<path d="M73.7315 32.5712C74.9672 31.6229 75.2 29.8526 74.2513 28.6172C73.3027 27.3818 71.5319 27.1491 70.2961 28.0974C69.0604 29.0458 68.8276 30.8161 69.7763 32.0515C70.7249 33.2869 72.4957 33.5196 73.7315 32.5712Z" stroke="#D7D4FC" stroke-width="0.607947" stroke-miterlimit="10"/>
<path d="M51.9671 168.756C23.8184 168.756 1 147.106 1 120.403C1 101.525 12.3972 85.1798 29.0229 77.2167" stroke="#C1C0FF" stroke-width="0.607947" stroke-miterlimit="10" stroke-dasharray="2.43 2.43"/>
<path d="M171.511 112.788C187.961 112.788 201.296 99.7513 201.296 83.6692C201.296 67.5872 187.961 54.55 171.511 54.55C155.061 54.55 141.726 67.5872 141.726 83.6692C141.726 99.7513 155.061 112.788 171.511 112.788Z" stroke="#C1C0FF" stroke-width="0.521381" stroke-miterlimit="10" stroke-dasharray="2.09 2.09"/>
<path d="M96.7284 132.294C115.03 132.294 129.866 117.792 129.866 99.9028C129.866 82.0136 115.03 67.5116 96.7284 67.5116C78.427 67.5116 63.5908 82.0136 63.5908 99.9028C63.5908 117.792 78.427 132.294 96.7284 132.294Z" stroke="#C1C0FF" stroke-width="0.607947" stroke-miterlimit="10" stroke-dasharray="2.43 2.43"/>
<path d="M91.7576 106.549H34.9268C32.6416 106.549 30.7881 104.696 30.7881 102.411V65.8477C30.7881 63.5631 32.6416 61.7102 34.9268 61.7102H91.7576C94.0428 61.7102 95.8963 63.5631 95.8963 65.8477V102.411C95.8963 104.696 94.0428 106.549 91.7576 106.549Z" fill="#D0EEDE"/>
<path d="M64.8804 102.4C64.8699 102.995 64.5066 103.553 63.9379 103.759C63.3534 103.969 62.69 103.79 62.3003 103.306C61.9265 102.843 61.8844 102.169 62.1898 101.658C62.4952 101.153 63.1007 100.869 63.6852 100.974C64.375 101.1 64.8699 101.7 64.8804 102.4C64.8857 102.822 65.5439 102.827 65.5386 102.4C65.5281 101.516 64.9858 100.737 64.1591 100.426C63.3482 100.116 62.3741 100.379 61.8212 101.053C61.263 101.737 61.1683 102.716 61.6211 103.48C62.0792 104.243 62.9638 104.622 63.8326 104.469C64.8173 104.29 65.5176 103.39 65.5334 102.406C65.5439 101.974 64.8857 101.974 64.8804 102.4Z" fill="black"/>
<path d="M87.4456 98.4945H39.2344C36.9492 98.4945 35.0957 96.6416 35.0957 94.357V68.4531C35.0957 66.1686 36.9492 64.3157 39.2344 64.3157H87.4456C89.7308 64.3157 91.5843 66.1686 91.5843 68.4531V94.357C91.5895 96.6416 89.7361 98.4945 87.4456 98.4945Z" fill="white"/>
<path d="M55.32 89.4243C44.7416 89.4243 36.1641 100.21 36.1641 113.512H74.476C74.476 100.21 65.8985 89.4243 55.32 89.4243Z" fill="white" stroke="black" stroke-width="0.5345" stroke-miterlimit="10"/>
<path d="M49.3338 95.2256C49.3338 95.9784 48.723 96.5943 47.9647 96.5943C47.2065 96.5943 46.5957 95.9837 46.5957 95.2256C46.5957 94.4728 47.2065 93.8569 47.9647 93.8569C48.723 93.8569 49.3338 94.4728 49.3338 95.2256Z" fill="#FFBA7B"/>
<path d="M54.7659 101.853C55.6063 101.853 56.2876 101.172 56.2876 100.331C56.2876 99.4911 55.6063 98.8099 54.7659 98.8099C53.9254 98.8099 53.2441 99.4911 53.2441 100.331C53.2441 101.172 53.9254 101.853 54.7659 101.853Z" fill="#FFBA7B"/>
<path d="M61.9676 95.2256C61.9676 95.9784 61.3568 96.5943 60.5985 96.5943C59.8456 96.5943 59.2295 95.9837 59.2295 95.2256C59.2295 94.4728 59.8403 93.8569 60.5985 93.8569C61.3568 93.8622 61.9676 94.4728 61.9676 95.2256Z" fill="#FFBA7B"/>
<path d="M67.2586 99.9372C67.91 99.9372 68.4381 99.4093 68.4381 98.758C68.4381 98.1068 67.91 97.5789 67.2586 97.5789C66.6072 97.5789 66.0791 98.1068 66.0791 98.758C66.0791 99.4093 66.6072 99.9372 67.2586 99.9372Z" fill="#FFBA7B"/>
<path d="M44.6166 101.132C44.6166 101.916 43.9795 102.559 43.1897 102.559C42.4051 102.559 41.7627 101.922 41.7627 101.132C41.7627 100.342 42.3998 99.7053 43.1897 99.7053C43.9795 99.7106 44.6166 100.348 44.6166 101.132Z" fill="#FFBA7B"/>
<path d="M49.2971 106.775C50.1376 106.775 50.8189 106.094 50.8189 105.254C50.8189 104.413 50.1376 103.732 49.2971 103.732C48.4567 103.732 47.7754 104.413 47.7754 105.254C47.7754 106.094 48.4567 106.775 49.2971 106.775Z" fill="#FFBA7B"/>
<path d="M63.3723 106.238C64.0645 106.238 64.6255 105.677 64.6255 104.985C64.6255 104.293 64.0645 103.732 63.3723 103.732C62.6802 103.732 62.1191 104.293 62.1191 104.985C62.1191 105.677 62.6802 106.238 63.3723 106.238Z" fill="#FFBA7B"/>
<path d="M70.8711 107.454C70.8711 108.128 70.3288 108.67 69.6548 108.67C68.9808 108.67 68.4385 108.128 68.4385 107.454C68.4385 106.78 68.9808 106.238 69.6548 106.238C70.3235 106.238 70.8711 106.785 70.8711 107.454Z" fill="#FFBA7B"/>
<path d="M42.9844 108.064C42.9844 108.775 42.4052 109.354 41.6944 109.354C40.9835 109.354 40.4043 108.775 40.4043 108.064C40.4043 107.353 40.9835 106.774 41.6944 106.774C42.4052 106.769 42.9844 107.348 42.9844 108.064Z" fill="#FFBA7B"/>
<path d="M57.9004 109.354C57.9004 110.064 57.3212 110.643 56.6104 110.643C55.8995 110.643 55.3203 110.064 55.3203 109.354C55.3203 108.643 55.8995 108.064 56.6104 108.064C57.3212 108.064 57.9004 108.643 57.9004 109.354Z" fill="#FFBA7B"/>
<path d="M75.9598 101.011L76.3389 99.7263C76.3389 99.7263 76.3758 99.3841 75.8861 99.1946C75.3912 99.0051 67.8562 96.1045 67.8562 96.1045C67.8562 96.1045 67.2138 95.7255 67.0348 96.1887C66.8557 96.652 65.6078 98.6998 65.6078 98.6998C65.6078 98.6998 65.2498 99.2209 65.6868 99.4578C66.1238 99.7 72.9532 102.269 72.9532 102.269L74.6961 102.99C74.6961 102.99 75.249 103.19 75.3385 102.922C75.4227 102.664 75.9598 101.011 75.9598 101.011Z" fill="#049478"/>
<path d="M78.0616 91.9885C78.0616 91.9885 78.7408 88.4827 78.1827 87.8248C77.6245 87.1668 77.0927 87.8721 76.8189 88.7565C76.5398 89.6408 76.1028 91.32 76.1028 91.32L74.3441 87.7879C74.3441 87.7879 78.2511 84.9401 78.3986 84.419C78.546 83.8978 78.5776 83.5504 78.309 83.5452C78.0405 83.5399 77.2033 83.7662 77.2033 83.7662C77.2033 83.7662 78.5249 82.4924 78.1142 82.0397C77.7035 81.587 76.2765 82.624 76.2765 82.624C76.2765 82.624 76.7873 80.6921 76.5556 80.3184C76.3187 79.9446 74.7179 82.1449 74.2809 82.9661C73.8386 83.7873 73.0488 85.1454 73.0488 85.1454C73.0488 85.1454 72.5222 85.556 72.5433 85.7771C72.5644 85.9982 71.9009 86.4877 71.7956 86.5772C71.6955 86.6667 70.8952 88.3354 70.1422 90.0303C69.3892 91.7306 68.2729 94.0362 68.2729 94.0362L67.7253 95.0837C67.7253 95.0837 67.1409 95.9365 68.3572 96.2839C69.5735 96.6313 74.3704 98.6001 74.3704 98.6001L75.8922 99.1844C75.8922 99.1844 76.3503 99.8266 76.7188 98.3527C77.0874 96.8893 78.0616 91.9885 78.0616 91.9885Z" fill="white"/>
<path d="M75.0604 103.722C77.7037 96.347 78.8095 88.6247 78.1829 87.8299C77.3141 86.7192 76.7717 88.6142 76.103 91.3251L74.3443 87.793C74.3443 87.793 78.562 84.9242 78.562 83.7819C78.562 82.6396 71.9485 85.8717 71.3693 87.0719C70.9954 87.8457 68.7523 94.1624 64.9717 99.658" stroke="black" stroke-width="0.5345" stroke-miterlimit="10"/>
<path d="M76.784 83.8719C76.784 83.8719 78.5269 82.7928 78.1161 82.0453C77.7107 81.2977 72.4294 85.0248 72.561 86.0092" stroke="black" stroke-width="0.5345" stroke-miterlimit="10"/>
<path d="M76.0937 82.7399C76.0937 82.7399 77.1784 80.5921 76.5571 80.3236C75.9357 80.0604 73.7189 83.6348 73.4609 84.7297" stroke="black" stroke-width="0.5345" stroke-miterlimit="10"/>
<path d="M76.4324 99.4L67.2861 95.8835" stroke="black" stroke-width="0.5345" stroke-miterlimit="10"/>
<path d="M75.2302 103.217L65.3311 99.116" stroke="black" stroke-width="0.5345" stroke-miterlimit="10"/>
<path d="M75.2491 98.9468L73.8379 102.637" stroke="black" stroke-width="0.5345" stroke-miterlimit="10"/>
<path d="M73.4936 98.2736L72.0771 101.911" stroke="black" stroke-width="0.5345" stroke-miterlimit="10"/>
<path d="M71.8522 97.5732L70.4727 101.163" stroke="black" stroke-width="0.5345" stroke-miterlimit="10"/>
<path d="M70.0364 96.8992L68.7832 100.484" stroke="black" stroke-width="0.5345" stroke-miterlimit="10"/>
<path d="M68.5022 96.3413L67.0068 99.7893" stroke="black" stroke-width="0.5345" stroke-miterlimit="10"/>
<path d="M47.7832 78.6396C47.7832 80.2294 49.0838 81.5139 50.6845 81.5139C52.2852 81.5139 53.5858 80.2241 53.5858 78.6396C53.5858 77.0498 52.2852 75.7654 50.6845 75.7654C49.0838 75.7654 47.7832 77.0498 47.7832 78.6396Z" stroke="black" stroke-width="1.069" stroke-miterlimit="10"/>
<path d="M59.4725 90.1882C59.4725 91.5201 57.619 92.6045 55.3285 92.6045C53.038 92.6045 51.1846 91.5253 51.1846 90.1882C51.1846 88.8564 53.038 87.772 55.3285 87.772C57.619 87.772 59.4725 88.8564 59.4725 90.1882Z" fill="#049478" stroke="#211F21" stroke-width="0.5345" stroke-miterlimit="10"/>
<path d="M60.4189 69.717H56.7752C54.353 69.717 52.3732 71.9753 52.3732 74.7283V80.3765C52.3732 80.5345 52.3837 80.6924 52.3942 80.8503C52.3574 81.0187 52.3311 81.1872 52.3311 81.3662V84.8035V84.993V88.4304C52.3311 89.6779 53.3526 90.6991 54.6005 90.6991H56.0432C57.2912 90.6991 58.3127 89.6779 58.3127 88.4304V85.3878H60.4189C62.841 85.3878 64.8209 83.1296 64.8209 80.3765V74.7283C64.8261 71.97 62.841 69.717 60.4189 69.717Z" fill="white" stroke="black" stroke-width="0.5345" stroke-miterlimit="10"/>
<path d="M57.5381 76.5702C57.5381 77.023 57.9067 77.3914 58.3595 77.3914C58.8123 77.3914 59.1809 77.023 59.1809 76.5702C59.1809 76.1175 58.8123 75.749 58.3595 75.749C57.9067 75.7543 57.5381 76.1175 57.5381 76.5702Z" fill="#141414"/>
<path d="M62.9141 76.4539C62.9141 76.8435 63.23 77.1541 63.6144 77.1541C64.004 77.1541 64.3147 76.8382 64.3147 76.4539C64.3147 76.0644 63.9988 75.7538 63.6144 75.7538C63.23 75.7538 62.9141 76.0644 62.9141 76.4539Z" fill="#141414"/>
<path d="M62.1261 79.8131C62.1261 79.8131 61.7154 81.0134 60.8413 81.0976C59.9673 81.1818 59.2827 80.2132 59.2354 79.4604L62.1261 79.8131Z" fill="#F7F6F6"/>
<path d="M61.8409 79.7338C61.8304 79.7654 61.8198 79.7917 61.804 79.8233C61.8409 79.7338 61.7988 79.8391 61.783 79.8706C61.7619 79.918 61.7356 79.9654 61.7145 80.0128C61.5881 80.2444 61.4828 80.4076 61.2985 80.576C61.1195 80.7392 60.8878 80.8445 60.614 80.8024C60.3455 80.7603 60.0927 80.576 59.9137 80.3549C59.8084 80.2286 59.7189 80.0759 59.6557 79.9338C59.5872 79.7812 59.5451 79.5969 59.5346 79.46C59.4345 79.5601 59.3398 79.6548 59.2397 79.7548C60.0822 79.8601 60.9247 79.9601 61.7672 80.0654C61.8883 80.0812 62.0041 80.097 62.1252 80.1075C62.2832 80.1286 62.4201 79.9601 62.4201 79.8127C62.4201 79.639 62.2832 79.539 62.1252 79.5179C61.2827 79.4127 60.4403 79.3126 59.5978 79.2074C59.4767 79.1916 59.3608 79.1758 59.2397 79.1652C59.087 79.1495 58.9343 79.3126 58.9449 79.46C59.0028 80.2549 59.5346 81.0867 60.3244 81.3341C61.0932 81.5762 61.7619 81.0867 62.1463 80.455C62.2516 80.276 62.3464 80.0865 62.4148 79.8917C62.4675 79.7443 62.3569 79.5706 62.2095 79.5285C62.041 79.4811 61.8935 79.5811 61.8409 79.7338Z" fill="#141414"/>
<path d="M56.7237 81.6344C57.852 81.6344 58.7667 80.72 58.7667 79.5919C58.7667 78.4639 57.852 77.5494 56.7237 77.5494C55.5954 77.5494 54.6807 78.4639 54.6807 79.5919C54.6807 80.72 55.5954 81.6344 56.7237 81.6344Z" fill="#E4B0C8"/>
<path d="M64.277 78.2072C64.4033 78.2072 64.5192 78.2229 64.635 78.2493V80.3655C64.635 80.6813 64.6245 80.9866 64.5613 81.2867C64.4771 81.3025 64.3665 81.313 64.277 81.313C63.4187 81.313 62.7236 80.6181 62.7236 79.7601C62.7236 78.902 63.4187 78.2072 64.277 78.2072Z" fill="#E4B0C8"/>
<path d="M61.2066 75.7548L61.0381 78.55L62.3755 77.7341L61.2066 75.7548Z" fill="#D96980"/>
<path d="M53.3689 77.5495L54.0008 74.1227C54.0008 74.1227 57.5497 75.2544 60.2615 73.0857C62.9732 70.9117 58.5239 70.0379 59.24 71.6592C59.9561 73.2752 62.4467 73.9437 65.5217 73.6016C70.1028 73.0962 70.2186 67.5638 67.5858 65.9425C64.9531 64.316 61.9781 66.2268 61.9781 66.2268C61.9781 66.2268 63.3471 63.4843 59.9192 62.5683C57.1022 61.8156 54.9907 64.2001 54.68 65.2529C54.68 65.2529 50.0358 65.7109 47.9718 68.6271C45.9077 71.5434 45.7444 75.0281 47.7822 78.2075C49.8199 81.3869 52.2526 83.0977 52.2526 83.0977C52.2526 83.0977 52.6528 78.9866 53.3689 77.5495Z" fill="black"/>
<path d="M47.7842 78.6396C47.7842 80.2294 49.0848 81.5139 50.6855 81.5139C52.2862 81.5139 53.5868 80.2241 53.5868 78.6396C53.5868 77.0498 52.2862 75.7654 50.6855 75.7654C49.0848 75.7654 47.7842 77.0498 47.7842 78.6396Z" fill="white"/>
<path d="M52.6137 79.0185C52.6295 78.7658 52.5874 78.4973 52.5189 78.2551C52.3768 77.7603 52.0608 77.3129 51.5869 77.097C51.2078 76.9233 50.7866 76.8759 50.3706 76.9233C50.181 76.9444 49.9967 77.076 50.0073 77.2865C50.0178 77.4655 50.1652 77.6708 50.3706 77.6498C50.5444 77.634 50.7181 77.6287 50.8919 77.6445C50.9077 77.6445 50.9287 77.6498 50.9445 77.6498C50.834 77.6445 50.9024 77.6445 50.9287 77.6498C50.9603 77.655 50.9919 77.6603 51.0288 77.6708C51.0972 77.6866 51.1604 77.7077 51.2236 77.7287C51.3131 77.7603 51.1499 77.6919 51.2341 77.734C51.2605 77.7445 51.2868 77.7603 51.3079 77.7708C51.3605 77.7972 51.4079 77.8445 51.4606 77.8656C51.3868 77.834 51.4026 77.8182 51.429 77.8445C51.4395 77.8551 51.45 77.8603 51.4606 77.8709C51.4816 77.8867 51.4974 77.9024 51.5185 77.9235C51.5553 77.9604 51.5869 78.0077 51.629 78.0446C51.5448 77.9603 51.6027 78.0077 51.6238 78.0393C51.6396 78.0604 51.6501 78.0762 51.6606 78.0972C51.687 78.1393 51.7133 78.1867 51.7344 78.2288C51.7449 78.2499 51.7554 78.2762 51.766 78.2973C51.787 78.3341 51.7291 78.2025 51.7502 78.2551C51.7554 78.2657 51.7607 78.2762 51.7607 78.2867C51.7765 78.3341 51.7923 78.3815 51.8081 78.4289C51.8344 78.5078 51.8502 78.5921 51.866 78.671C51.8713 78.6868 51.8713 78.7079 51.8765 78.7237C51.8871 78.7974 51.866 78.6184 51.8713 78.6868C51.8765 78.7237 51.8765 78.7552 51.8818 78.7921C51.8871 78.8658 51.8923 78.9448 51.8871 79.0185C51.8765 79.208 52.0608 79.3869 52.2504 79.3817C52.461 79.3711 52.6032 79.2238 52.6137 79.0185Z" fill="#090909"/>
<path d="M87.4456 98.4945H39.2344C36.9492 98.4945 35.0957 96.6416 35.0957 94.357V68.4531C35.0957 66.1686 36.9492 64.3157 39.2344 64.3157H87.4456C89.7308 64.3157 91.5843 66.1686 91.5843 68.4531V94.357C91.5895 96.6416 89.7361 98.4945 87.4456 98.4945Z" stroke="black" stroke-width="0.5345" stroke-miterlimit="10"/>
<path d="M251.471 73.2796H164.016C161.003 73.2796 158.562 70.84 158.562 67.8276V5.45201C158.562 2.43958 161.003 0 164.016 0H251.471C254.484 0 256.924 2.43958 256.924 5.45201V67.8276C256.924 70.84 254.484 73.2796 251.471 73.2796Z" fill="#FFBA7B"/>
<path d="M208.915 82.481H200.344C198.809 82.481 197.775 80.9107 198.388 79.5006L203.009 68.8369L206.96 59.7115C207.701 57.997 210.133 57.997 210.874 59.7115L214.825 68.8369L219.446 79.5006C220.055 80.9067 219.025 82.481 217.49 82.481H208.915Z" fill="#FFBA7B"/>
<path d="M211.529 65.0597C211.529 66.4498 210.403 67.5756 209.013 67.5756C207.622 67.5756 206.496 66.4498 206.496 65.0597C206.496 63.6696 207.622 62.5439 209.013 62.5439C210.403 62.5439 211.529 63.6696 211.529 65.0597Z" stroke="black" stroke-width="0.406756" stroke-miterlimit="10"/>
<path d="M250.156 59.5193H166.941C165.558 59.5193 164.44 58.3977 164.44 57.0197V8.13187C164.44 6.74984 165.562 5.6322 166.941 5.6322H250.156C251.538 5.6322 252.656 6.75385 252.656 8.13187V57.0197C252.656 58.4017 251.538 59.5193 250.156 59.5193Z" fill="white" stroke="black" stroke-width="0.406756" stroke-miterlimit="10"/>
<path d="M175.565 53.0737H225.049C228.026 53.0737 230.438 50.6621 230.438 47.6858V12.9908C230.438 10.0144 228.026 7.60291 225.049 7.60291H175.565C172.588 7.60291 170.176 10.0144 170.176 12.9908V47.6898C170.176 50.6621 172.588 53.0737 175.565 53.0737Z" fill="white" stroke="black" stroke-width="0.406756" stroke-miterlimit="10"/>
<path d="M176.056 11.7647C176.056 12.3335 175.599 12.7942 175.038 12.7942C174.477 12.7942 174.021 12.3335 174.021 11.7647C174.021 11.1958 174.477 10.7351 175.038 10.7351C175.599 10.7351 176.056 11.1958 176.056 11.7647Z" fill="#EC6060" stroke="black" stroke-width="0.406756" stroke-miterlimit="10"/>
<path d="M180.112 11.7647C180.112 12.3335 179.655 12.7942 179.094 12.7942C178.533 12.7942 178.076 12.3335 178.076 11.7647C178.076 11.1958 178.533 10.7351 179.094 10.7351C179.659 10.7351 180.112 11.1958 180.112 11.7647Z" fill="#FFBA7B" stroke="black" stroke-width="0.406756" stroke-miterlimit="10"/>
<path d="M184.172 11.7647C184.172 12.3335 183.716 12.7942 183.155 12.7942C182.594 12.7942 182.137 12.3335 182.137 11.7647C182.137 11.1958 182.594 10.7351 183.155 10.7351C183.716 10.7351 184.172 11.1958 184.172 11.7647Z" fill="#049478" stroke="black" stroke-width="0.406756" stroke-miterlimit="10"/>
<path d="M170.309 15.3737H230.431" stroke="black" stroke-width="0.406756" stroke-miterlimit="10"/>
<path d="M227.014 34.4298H215.79V41.4244H227.014V34.4298Z" stroke="#88E5D4" stroke-width="0.406756" stroke-miterlimit="10"/>
<path d="M217.164 36.2687H225.314" stroke="#88E5D4" stroke-width="0.406756" stroke-miterlimit="10"/>
<path d="M217.164 37.5431H225.314" stroke="#88E5D4" stroke-width="0.406756" stroke-miterlimit="10"/>
<path d="M217.164 38.8164H225.314" stroke="#88E5D4" stroke-width="0.406756" stroke-miterlimit="10"/>
<path d="M202.492 27.2431V19.035C197.956 19.035 194.281 22.7084 194.281 27.2431C194.281 31.7777 197.956 35.4511 202.492 35.4511C207.028 35.4511 210.702 31.7777 210.702 27.2431C210.702 26.6502 210.634 26.0694 210.514 25.5125L202.492 27.2431Z" fill="#EC6060"/>
<path d="M211.524 24.075C210.731 20.3734 207.441 17.5972 203.502 17.5972V25.8056L211.524 24.075Z" fill="#FFA370"/>
<path d="M187.055 19.52H177.214C176.833 19.52 176.521 19.2115 176.521 18.827C176.521 18.4464 176.829 18.1339 177.214 18.1339H187.055C187.436 18.1339 187.748 18.4424 187.748 18.827C187.744 19.2115 187.436 19.52 187.055 19.52Z" stroke="#88E5D4" stroke-width="0.406756" stroke-miterlimit="10"/>
<path d="M177.227 20.55H186.751" stroke="#88E5D4" stroke-width="0.406756" stroke-miterlimit="10"/>
<path d="M177.227 21.8232H186.751" stroke="#88E5D4" stroke-width="0.406756" stroke-miterlimit="10"/>
<path d="M177.227 23.0936H186.751" stroke="#88E5D4" stroke-width="0.406756" stroke-miterlimit="10"/>
<path d="M188.454 19.0477H192.048L197.23 23.7909" stroke="#88E5D4" stroke-width="0.406756" stroke-miterlimit="10"/>
<path d="M226.317 20.3213H216.475C216.095 20.3213 215.782 20.0128 215.782 19.6282C215.782 19.2477 216.091 18.9352 216.475 18.9352H226.317C226.698 18.9352 227.01 19.2436 227.01 19.6282C227.01 20.0128 226.702 20.3213 226.317 20.3213Z" stroke="#88E5D4" stroke-width="0.406756" stroke-miterlimit="10"/>
<path d="M216.5 21.3501H226.025" stroke="#88E5D4" stroke-width="0.406756" stroke-miterlimit="10"/>
<path d="M216.5 22.6245H226.025" stroke="#88E5D4" stroke-width="0.406756" stroke-miterlimit="10"/>
<path d="M216.5 23.894H226.025" stroke="#88E5D4" stroke-width="0.406756" stroke-miterlimit="10"/>
<path d="M216.5 25.2163H226.025" stroke="#88E5D4" stroke-width="0.406756" stroke-miterlimit="10"/>
<path d="M216.5 26.4897H226.025" stroke="#88E5D4" stroke-width="0.406756" stroke-miterlimit="10"/>
<path d="M216.5 27.7642H226.025" stroke="#88E5D4" stroke-width="0.406756" stroke-miterlimit="10"/>
<path d="M208.489 22.8531L211.963 20.0048H215.049" stroke="#88E5D4" stroke-width="0.406756" stroke-miterlimit="10"/>
<path d="M177.945 30.5089V46.6366H202.36" stroke="#88E5D4" stroke-width="0.406756" stroke-miterlimit="10"/>
<path d="M177.945 30.5966H177.071L177.508 29.8435L177.945 29.0903L178.378 29.8435L178.814 30.5966H177.945Z" fill="#88E5D4"/>
<path d="M202.1 46.6354V45.7661L202.857 46.1988L203.61 46.6354L202.857 47.0721L202.1 47.5087V46.6354Z" fill="#88E5D4"/>
<path d="M175.924 45.3031L181.862 39.955L186.747 45.207L192.91 33.9259L197.414 44.9345" stroke="#FFBA7B" stroke-width="0.406756" stroke-miterlimit="10"/>
<path d="M173.894 37.3459C173.894 37.3459 174.11 37.1216 174.471 36.7931" stroke="#EC6060" stroke-width="0.406756" stroke-miterlimit="10"/>
<path d="M175.664 35.8079C177.243 34.6222 179.523 33.4004 180.973 34.7984C183.374 37.1098 182.805 38.8884 187.625 37.8509C192.157 36.8775 197.719 38.2235 199.354 45.9548" stroke="#EC6060" stroke-width="0.406756" stroke-miterlimit="10" stroke-dasharray="1.57 1.57"/>
<path d="M199.494 46.7163C199.538 46.9727 199.578 47.2371 199.614 47.5095" stroke="#EC6060" stroke-width="0.406756" stroke-miterlimit="10"/>
<path d="M249.842 28.2499C249.842 28.2499 264.664 34.0424 272.518 59.0952L262.48 64.0745L255.051 45.1106L249.842 28.2499Z" fill="#049478" stroke="black" stroke-width="0.406756" stroke-miterlimit="10"/>
<path d="M205.652 33.2091C205.652 33.2091 203.127 31.5868 203.44 30.8136C203.752 30.0405 204.486 30.4731 204.486 30.4731C204.486 30.4731 203.732 30.0124 204.081 29.4997C204.43 28.9909 204.902 29.1792 204.902 29.1792C204.902 29.1792 204.37 28.3981 204.882 28.1057C205.395 27.8172 206.169 28.0015 206.169 28.0015C206.169 28.0015 205.872 27.3525 205.888 27.1202C205.904 26.8919 206.237 26.3831 207.311 26.6355C208.389 26.8839 210.689 28.1657 211.466 28.5623C212.243 28.9589 213.117 29.8722 213.145 29.5758C213.169 29.2794 213.502 27.3886 214.239 26.8358C214.972 26.283 215.265 26.1948 215.397 27.2444C215.529 28.2939 215.493 31.2182 216.916 33.3734C218.338 35.5285 218.823 36.9627 220.326 38.7092C221.828 40.4558 222.518 41.3371 222.518 41.3371L215.746 46.8492C215.746 46.8492 209.174 36.9627 209.126 36.8946C209.078 36.8305 206.946 34.2146 205.652 33.2091Z" fill="white"/>
<path d="M204.263 30.421C204.263 30.421 203.421 29.0509 204.996 29.2192C206.571 29.3874 208.707 30.8416 209.732 31.6148" stroke="black" stroke-width="0.406756" stroke-miterlimit="10"/>
<path d="M211.449 34.7155C211.449 34.7155 210.872 32.9569 213.384 32.2278C213.384 32.2278 212.426 28.4943 214.238 26.8359C216.049 25.1775 215.063 29.4477 216.273 32.0476C217.483 34.6474 218.858 37.1551 220.148 38.5251C221.438 39.8951 222.552 41.3853 222.552 41.3853L215.704 46.8813C215.704 46.8813 213.364 43.3241 209.754 37.808C206.143 32.2919 202.958 32.1677 203.443 30.8137C204.04 29.1473 208.295 33.0731 208.295 33.0731" stroke="black" stroke-width="0.406756" stroke-miterlimit="10"/>
<path d="M204.995 29.2196C204.995 29.2196 204.185 28.2221 205.215 27.9617C205.387 27.9177 205.6 27.9137 205.844 27.9457C207.082 28.106 209.142 29.1475 210.645 30.3093" stroke="black" stroke-width="0.406756" stroke-miterlimit="10"/>
<path d="M213.159 29.8607C213.159 29.8607 210.21 27.1086 206.848 26.6559C205.63 26.4917 205.682 27.7055 206.876 28.2103" stroke="black" stroke-width="0.406756" stroke-miterlimit="10"/>
<path d="M227.451 44.7976C226.497 44.1566 225.523 43.3194 224.589 42.4141C221.56 39.4697 218.972 35.8004 218.972 35.8004L211.526 42.1777C211.526 42.1777 219.649 54.7802 224.525 56.3545C229.402 57.9289 240.554 45.2542 240.554 45.2542L241.431 28.5778C241.431 28.5778 239.336 29.7034 237.653 31.2216C234.892 33.7133 230.063 38.1718 224.593 42.4141" fill="#049478"/>
<path d="M227.451 44.7976C226.497 44.1566 225.523 43.3194 224.589 42.4141C221.56 39.4697 218.972 35.8004 218.972 35.8004L211.526 42.1777C211.526 42.1777 219.649 54.7802 224.525 56.3545C229.402 57.9289 240.554 45.2542 240.554 45.2542L241.431 28.5778C241.431 28.5778 239.336 29.7034 237.653 31.2216C234.892 33.7133 230.063 38.1718 224.593 42.4141" stroke="black" stroke-width="0.406756" stroke-miterlimit="10"/>
<path d="M221.4 38.9328C219.945 37.1862 218.972 35.8041 218.972 35.8041L211.526 42.1817C211.526 42.1817 212.472 43.6479 213.907 45.6389L221.4 38.9328Z" fill="white" stroke="black" stroke-width="0.406756" stroke-miterlimit="10"/>
<path d="M219.574 38.22C219.574 38.5004 219.346 38.7247 219.069 38.7247C218.789 38.7247 218.564 38.4964 218.564 38.22C218.564 37.9436 218.793 37.7152 219.069 37.7152C219.346 37.7152 219.574 37.9395 219.574 38.22Z" fill="white" stroke="black" stroke-width="0.406756" stroke-miterlimit="10"/>
<path d="M261.651 60.2162C261.651 60.076 261.651 57.2359 261.651 57.0997C261.651 40.6755 254.663 27.36 246.039 27.36C237.416 27.36 230.428 40.6755 230.428 57.0997C230.428 57.2399 230.428 60.08 230.428 60.2162H261.651Z" fill="#049478"/>
<path d="M245.992 34.8157V60.217" stroke="black" stroke-width="0.406756" stroke-miterlimit="10"/>
<path d="M246.038 35.08L252.057 29.6518C250.206 28.1776 248.17 27.3563 246.038 27.3563C243.975 27.3563 241.819 28.2657 240.016 29.6478L246.038 35.08Z" fill="white" stroke="black" stroke-width="0.406756" stroke-miterlimit="10"/>
<path d="M232.672 41.7333C231.249 46.2158 230.428 51.4756 230.428 57.0998C230.428 57.24 230.428 60.0802 230.428 60.2164H261.651C261.651 60.0762 261.651 57.236 261.651 57.0998C261.651 51.3474 260.793 45.9755 259.307 41.4248" stroke="black" stroke-width="0.406756" stroke-miterlimit="10"/>
<path d="M252.062 29.6517C250.211 28.1735 248.175 27.3602 246.044 27.3602C243.916 27.3602 241.892 28.1695 240.041 29.6357" stroke="black" stroke-width="0.406756" stroke-miterlimit="10"/>
<path d="M250.156 59.5193H166.941C165.558 59.5193 164.44 58.3977 164.44 57.0197V8.13187C164.44 6.74984 165.562 5.6322 166.941 5.6322H250.156C251.538 5.6322 252.656 6.75385 252.656 8.13187V57.0197C252.656 58.4017 251.538 59.5193 250.156 59.5193Z" stroke="black" stroke-width="0.406756" stroke-miterlimit="10"/>
<path d="M252.243 31.2624L248.921 26.2749C248.272 25.2974 247.05 24.9369 245.996 25.3255C244.942 24.9329 243.72 25.2974 243.071 26.2749L239.749 31.2624C238.992 32.4001 239.3 33.9385 240.438 34.6996L240.915 35.0161C242.053 35.7732 243.592 35.4648 244.353 34.3271L246 31.8553L247.647 34.3271C248.404 35.4648 249.943 35.7732 251.085 35.0161L251.562 34.6996C252.692 33.9385 253 32.4001 252.243 31.2624Z" fill="#FEFEFF" stroke="black" stroke-width="0.406756" stroke-miterlimit="10"/>
<path d="M246.526 30.6731C246.526 30.9375 246.31 31.1538 246.045 31.1538C245.781 31.1538 245.564 30.9375 245.564 30.6731C245.564 30.4087 245.781 30.1924 246.045 30.1924C246.31 30.1924 246.526 30.4087 246.526 30.6731Z" fill="#FEFEFF" stroke="black" stroke-width="0.406756" stroke-miterlimit="10"/>
<path d="M252.594 18.8881C252.594 20.3062 251.436 21.456 250.006 21.456C248.575 21.456 247.417 20.3062 247.417 18.8881C247.417 17.4699 248.575 16.3202 250.006 16.3202C251.436 16.3202 252.594 17.4699 252.594 18.8881Z" stroke="black" stroke-width="0.813512" stroke-miterlimit="10"/>
<path d="M241.31 10.9199H244.564C246.727 10.9199 248.494 12.9349 248.494 15.3945V20.4339C248.494 20.5741 248.486 20.7143 248.474 20.8545C248.51 21.0027 248.531 21.159 248.531 21.3152V24.3837V24.5559V27.6244C248.531 28.7381 247.621 29.6474 246.507 29.6474H245.217C244.103 29.6474 243.193 28.7381 243.193 27.6244V24.9085H241.314C239.15 24.9085 237.383 22.8935 237.383 20.4339V15.3945C237.379 12.9349 239.146 10.9199 241.31 10.9199Z" fill="white" stroke="black" stroke-width="0.406756" stroke-miterlimit="10"/>
<path d="M247.64 18.8077L247.039 14.8579C247.039 14.8579 236.112 16.2279 232.569 10.9201C229.027 5.6123 232.75 3.51322 234.549 3.81366C236.348 4.1141 238.456 6.69389 238.456 6.69389C238.456 6.69389 236.781 4.41454 238.456 4.05402C240.131 3.69349 241.986 5.43604 242.948 7.23469C242.948 7.23469 250.148 6.5617 252.585 10.9201C255.021 15.2785 253.046 18.367 248.594 22.8696L248.297 20.3499L247.64 18.8077Z" fill="black"/>
<path d="M260.175 6.13725C260.175 8.69311 258.104 10.7642 255.547 10.7642C252.991 10.7642 250.919 8.69311 250.919 6.13725C250.919 3.58138 252.991 1.51025 255.547 1.51025C258.104 1.51426 260.175 3.58539 260.175 6.13725Z" fill="black"/>
<path d="M246.656 19.5804C246.656 20.61 245.819 21.4473 244.789 21.4473C243.759 21.4473 242.922 20.61 242.922 19.5804C242.922 18.5509 243.759 17.7136 244.789 17.7136C245.823 17.7136 246.656 18.5509 246.656 19.5804Z" fill="#E4B0C8"/>
<path d="M237.877 18.0897C237.765 18.0897 237.653 18.1057 237.549 18.1298V20.0647C237.549 20.3531 237.517 20.6376 237.577 20.91C237.653 20.922 237.797 20.93 237.877 20.93C238.663 20.93 239.3 20.2931 239.3 19.5079C239.3 18.7227 238.663 18.0897 237.877 18.0897Z" fill="#E4B0C8"/>
<path d="M243.286 16.9727C243.286 17.3413 242.99 17.6377 242.621 17.6377C242.253 17.6377 241.956 17.3413 241.956 16.9727C241.956 16.6042 242.253 16.3077 242.621 16.3077C242.99 16.3117 243.286 16.6082 243.286 16.9727Z" fill="#141414"/>
<path d="M238.94 16.8764C238.94 17.1888 238.687 17.4412 238.371 17.4412C238.058 17.4412 237.806 17.1888 237.806 16.8764C237.806 16.5639 238.058 16.3115 238.371 16.3115C238.687 16.3115 238.94 16.5639 238.94 16.8764Z" fill="#141414"/>
<path d="M239.572 19.5928C239.572 19.5928 239.905 20.5662 240.61 20.6303C241.315 20.6984 241.868 19.9172 241.908 19.3043L239.572 19.5928Z" fill="#F7F6F6"/>
<path d="M239.354 19.6528C239.482 20.0254 239.71 20.3899 240.027 20.6263C240.576 21.0429 241.293 20.8426 241.706 20.3338C241.946 20.0414 242.102 19.6848 242.131 19.3083C242.139 19.1961 242.022 19.0719 241.906 19.0839C241.225 19.1681 240.544 19.2522 239.859 19.3363C239.762 19.3483 239.666 19.3604 239.57 19.3724C239.45 19.3884 239.346 19.4645 239.346 19.5967C239.346 19.7049 239.45 19.8371 239.57 19.8211C240.251 19.7369 240.932 19.6528 241.618 19.5687C241.714 19.5567 241.81 19.5446 241.906 19.5326C241.83 19.4565 241.758 19.3844 241.682 19.3083C241.65 19.7449 241.321 20.2737 240.864 20.3899C240.432 20.5021 240.119 20.1696 239.923 19.8211C239.879 19.7449 239.842 19.6648 239.806 19.5847C239.79 19.5486 239.822 19.6328 239.81 19.5887C239.806 19.5807 239.802 19.5687 239.798 19.5607C239.794 19.5526 239.79 19.5406 239.786 19.5326C239.694 19.2642 239.261 19.3804 239.354 19.6528Z" fill="#141414"/>
<path d="M245.987 16.5846C245.987 18.0148 244.949 19.1765 243.667 19.1765C242.385 19.1765 241.347 18.0148 241.347 16.5846C241.347 15.1544 242.385 13.9927 243.667 13.9927C244.949 13.9927 245.987 15.1544 245.987 16.5846Z" stroke="#049478" stroke-width="0.406756" stroke-miterlimit="10"/>
<path d="M237.888 18.5756C238.941 18.5756 239.795 17.5389 239.795 16.2601C239.795 14.9813 238.941 13.9446 237.888 13.9446C236.834 13.9446 235.98 14.9813 235.98 16.2601C235.98 17.5389 236.834 18.5756 237.888 18.5756Z" stroke="#049478" stroke-width="0.406756" stroke-miterlimit="10"/>
<path d="M240.54 16.3202V18.5716L239.362 17.8545L240.54 16.3202Z" fill="#D96980"/>
<path d="M239.738 16.9529C239.738 16.9529 240.672 16.5599 241.349 17.1214" stroke="#049478" stroke-width="0.406756" stroke-miterlimit="10"/>
<path d="M252.587 18.8879C252.587 20.3061 251.429 21.4558 249.999 21.4558C248.568 21.4558 247.41 20.3061 247.41 18.8879C247.41 17.4698 248.568 16.3201 249.999 16.3201C251.429 16.3201 252.587 17.4698 252.587 18.8879Z" fill="white"/>
<path d="M248.872 19.2284C248.868 19.1724 248.872 19.1163 248.872 19.0602C248.872 19.0362 248.876 19.0081 248.876 18.9841C248.876 18.9681 248.88 18.956 248.88 18.94C248.888 18.8639 248.868 19.0081 248.88 18.948C248.892 18.8759 248.904 18.8038 248.924 18.7357C248.932 18.6996 248.944 18.6636 248.956 18.6275C248.964 18.6075 248.968 18.5875 248.976 18.5674C248.98 18.5594 248.984 18.5474 248.988 18.5394C249.004 18.4953 248.988 18.5474 248.98 18.5594C249.028 18.4833 249.06 18.3952 249.112 18.3191C249.116 18.3111 249.124 18.3071 249.128 18.299C249.152 18.267 249.156 18.287 249.116 18.3151C249.132 18.3071 249.144 18.279 249.16 18.263C249.192 18.2269 249.228 18.1909 249.265 18.1588C249.273 18.1508 249.281 18.1468 249.285 18.1428C249.309 18.1188 249.325 18.1308 249.273 18.1508C249.293 18.1428 249.313 18.1228 249.333 18.1108C249.377 18.0827 249.425 18.0547 249.477 18.0306C249.485 18.0266 249.533 18.0066 249.485 18.0266C249.437 18.0467 249.501 18.0186 249.513 18.0186C249.545 18.0066 249.577 17.9986 249.609 17.9866C249.641 17.9786 249.677 17.9705 249.709 17.9625C249.721 17.9585 249.733 17.9585 249.745 17.9545C249.757 17.9505 249.769 17.9505 249.781 17.9465C249.813 17.9425 249.805 17.9425 249.765 17.9465C249.793 17.9305 249.85 17.9385 249.882 17.9345C249.922 17.9305 249.966 17.9305 250.006 17.9305C250.098 17.9305 250.186 17.9345 250.278 17.9465C250.423 17.9625 250.559 17.8103 250.555 17.6701C250.547 17.5098 250.435 17.4097 250.278 17.3937C249.721 17.3376 249.112 17.4578 248.74 17.9105C248.487 18.2189 248.367 18.5995 248.331 18.9921C248.323 19.0682 248.319 19.1443 248.323 19.2204C248.331 19.3647 248.443 19.5049 248.599 19.4969C248.74 19.4969 248.884 19.3807 248.872 19.2284Z" fill="#090909"/>
<path d="M213.136 107.534H198.527C196.66 107.534 195.147 109.046 195.147 110.913V116.874V118.959V125.492L198.584 122.338H213.136C215.004 122.338 216.516 120.825 216.516 118.959V110.913C216.516 109.046 215.004 107.534 213.136 107.534Z" fill="white" stroke="black" stroke-width="0.321259" stroke-miterlimit="10"/>
<path d="M202.49 115.203C202.49 116.013 201.831 116.671 201.021 116.671C200.211 116.671 199.553 116.013 199.553 115.203C199.553 114.393 200.211 113.735 201.021 113.735C201.831 113.735 202.49 114.393 202.49 115.203Z" fill="white" stroke="black" stroke-width="0.321259" stroke-miterlimit="10"/>
<path d="M207.6 115.203C207.6 116.013 206.942 116.671 206.132 116.671C205.321 116.671 204.663 116.013 204.663 115.203C204.663 114.393 205.321 113.735 206.132 113.735C206.942 113.735 207.6 114.393 207.6 115.203Z" fill="white" stroke="black" stroke-width="0.321259" stroke-miterlimit="10"/>
<path d="M212.712 115.203C212.712 116.013 212.054 116.671 211.244 116.671C210.434 116.671 209.775 116.013 209.775 115.203C209.775 114.393 210.434 113.735 211.244 113.735C212.054 113.735 212.712 114.393 212.712 115.203Z" fill="white" stroke="black" stroke-width="0.321259" stroke-miterlimit="10"/>
<path d="M217.346 102.725H202.737C200.87 102.725 199.357 104.238 199.357 106.104V112.065V114.15V120.683L202.794 117.529H217.346C219.214 117.529 220.726 116.017 220.726 114.15V106.104C220.726 104.238 219.214 102.725 217.346 102.725Z" fill="white" stroke="black" stroke-width="0.321259" stroke-miterlimit="10"/>
<path d="M206.701 110.395C206.701 111.205 206.042 111.863 205.232 111.863C204.422 111.863 203.764 111.205 203.764 110.395C203.764 109.585 204.422 108.927 205.232 108.927C206.042 108.927 206.701 109.585 206.701 110.395Z" fill="white" stroke="black" stroke-width="0.321259" stroke-miterlimit="10"/>
<path d="M211.811 110.395C211.811 111.205 211.153 111.863 210.343 111.863C209.532 111.863 208.874 111.205 208.874 110.395C208.874 109.585 209.532 108.927 210.343 108.927C211.153 108.927 211.811 109.585 211.811 110.395Z" fill="white" stroke="black" stroke-width="0.321259" stroke-miterlimit="10"/>
<path d="M216.923 110.395C216.923 111.205 216.265 111.863 215.455 111.863C214.645 111.863 213.986 111.205 213.986 110.395C213.986 109.585 214.645 108.927 215.455 108.927C216.265 108.927 216.923 109.585 216.923 110.395Z" fill="white" stroke="black" stroke-width="0.321259" stroke-miterlimit="10"/>
<path d="M93.2466 40.5649H75.4761C73.2057 40.5649 71.3652 42.4049 71.3652 44.6746V51.93V54.4667V62.4148L75.547 58.5763H93.2508C95.5212 58.5763 97.3616 56.7364 97.3616 54.4667V44.6746C97.3575 42.4049 95.517 40.5649 93.2466 40.5649Z" fill="white" stroke="black" stroke-width="0.423644" stroke-miterlimit="10"/>
<path d="M80.2902 49.8938C80.2902 50.8827 79.4889 51.6796 78.504 51.6796C77.5149 51.6796 76.7178 50.8785 76.7178 49.8938C76.7178 48.9091 77.5191 48.108 78.504 48.108C79.4889 48.108 80.2902 48.9091 80.2902 49.8938Z" fill="white" stroke="black" stroke-width="0.423644" stroke-miterlimit="10"/>
<path d="M86.507 49.8938C86.507 50.8827 85.7057 51.6796 84.7208 51.6796C83.7317 51.6796 82.9346 50.8785 82.9346 49.8938C82.9346 48.9091 83.7359 48.108 84.7208 48.108C85.7057 48.108 86.507 48.9091 86.507 49.8938Z" fill="white" stroke="black" stroke-width="0.423644" stroke-miterlimit="10"/>
<path d="M92.7268 49.8938C92.7268 50.8827 91.9255 51.6796 90.9405 51.6796C89.9514 51.6796 89.1543 50.8785 89.1543 49.8938C89.1543 48.9091 89.9556 48.108 90.9405 48.108C91.9255 48.108 92.7268 48.9091 92.7268 49.8938Z" fill="white" stroke="black" stroke-width="0.423644" stroke-miterlimit="10"/>
</svg>
